<?xml version="1.0" encoding="utf-8"?>
<!-- Generator: Adobe Illustrator 19.0.0, SVG Export Plug-In . SVG Version: 6.00 Build 0)  -->
<svg version="1.1" id="Layer_1" xmlns="http://www.w3.org/2000/svg" xmlns:xlink="http://www.w3.org/1999/xlink" x="0px" y="0px"
	 viewBox="0 0 152 27.7" style="enable-background:new 0 0 152 27.7;" xml:space="preserve">
<style type="text/css">
	.st0{fill-rule:evenodd;clip-rule:evenodd;fill:#FFFFFF;}
</style>
<g>
	<path class="st0" d="M103,4.9c1.7,0,2.7-1.1,2.7-2.5c0-1.4-1-2.5-2.7-2.5c-1.6,0-2.7,1.2-2.7,2.5C100.3,3.8,101.4,4.9,103,4.9z"/>
	<path class="st0" d="M94.2,8.6l-1.3-0.4c-0.3-0.2-0.7-0.2-0.9-0.4c-1.1-0.3-1.8-0.7-2.3-1.2c-0.7-0.7-1-1.4-1-2.1
		c0-1.3,1.2-2.9,3.6-2.9c1.2,0,2,0.3,2.4,1v0.1c0.3,0.2,0.6,0.4,1.5,2.5l0.1,0.2C96.7,5.9,97,6,97,6c0.3,0,0.6-0.2,0.6-1V4.9
		l-0.1-2.4c0-0.7-0.2-1-0.4-1.2l-0.2-0.1c-0.2-0.1-1.9-0.7-4.1-0.7c-2.4,0-4.3,0.7-5.5,1.7c-1.8,1.5-2.3,2.9-2.3,4.4
		c0,4.2,4.3,5.8,5.1,6.2h0.2c3.3,1.3,3.5,1.7,3.7,1.9c0,0.1,0,0.1,0.1,0.1c0.6,0.7,0.9,1.5,0.9,2.4c0,1.8-1.7,3.5-4.1,3.5
		c-1.5,0-2.9-0.4-3.5-1.1c-0.6-0.4-0.8-0.8-1.1-1.5C86,17.7,86,17.3,85.9,17c-0.1-0.2-0.2-0.4-0.2-0.7L85.5,16
		c-0.1-0.6-0.4-0.7-0.7-0.7c-0.2,0-0.4,0.2-0.6,0.6c-0.1,0.2-0.1,0.6-0.1,1.9v0.1v1.2c0,0.8,0.2,1.2,0.7,1.4l0.2,0.1
		c0.9,0.4,3.1,1.1,5.3,1.1c6.8,0,8.5-4.6,8.5-7.3c0-1.2-0.3-2.5-1.2-3.5C96.9,10.1,96.1,9.4,94.2,8.6z"/>
	<path class="st0" d="M151,12.4c-0.9-0.9-1.9-1.3-2.8-1.5c-0.1,0-0.2-0.1-0.3-0.1l-0.6-0.2c-0.1,0-0.3-0.1-0.4-0.1
		c-0.7-0.2-1.4-0.4-1.9-0.9c-0.3-0.3-0.3-0.7-0.3-1c0-0.9,0.8-1.8,2.2-1.8s2.3,0.9,3.1,2l0.1,0.3c0.3,0.4,0.4,0.4,0.7,0.4
		c0.4,0,0.4-0.3,0.4-1V8.2V7.7c0-0.6,0-0.6-0.2-0.7V6.9c-0.2-0.1-1.4-0.9-3.9-0.9c-4.1,0-6,2.4-6,4.2c0,1.3,0.8,2.9,3.6,4.1l0.6,0.2
		c0.3,0.1,0.7,0.2,1,0.3c0.4,0.1,0.7,0.2,1.1,0.4c1.2,0.4,1.5,1.1,1.5,1.8c0,1.1-1,2.2-2.8,2.2c-1.1,0-2-0.3-2.4-0.7
		c-0.6-0.4-0.8-1-1.1-1.5c-0.2-0.3-0.3-0.6-0.6-0.9l-0.2-0.3c-0.1-0.2-0.2-0.2-0.2-0.2c-0.2,0-0.2,0-0.4,0.1c0,0.1-0.3,0.9-0.3,1.5
		v0.6v0.4c0,0.1,0.1,0.3,0.2,0.4l0.1,0.2c0.4,0.4,2.1,1.2,4.3,1.2c3.3,0,6.4-1.9,6.4-5C152,14.1,151.7,13.2,151,12.4z"/>
	<path class="st0" d="M106.8,18.9c-1.2-0.3-1.5-0.9-1.5-1.9V6.5C105.1,6.2,105,6,104.9,6c-0.1,0-0.2,0-0.3,0.2
		c-0.2,0.1-0.3,0.2-0.6,0.3c-0.1,0.2-0.3,0.4-0.6,0.6c-0.6,0.4-1.2,0.8-3.2,1.5c-0.1,0.1-0.1,0.1-0.2,0.1c-0.2,0.1-0.3,0.1-0.6,0.2
		c-0.1,0.2-0.1,0.3-0.1,0.4c0,0,0,0.2,0.2,0.3c0.1,0,0.3,0,0.4,0.1c0.2,0,0.3,0,0.6,0.1c0.2,0.1,0.6,0.4,0.6,1v6.6
		c0,0.6-0.2,1-1.3,1.3c-0.7,0.1-0.7,0.2-0.7,0.4c0,0.2,0.2,0.6,1,0.6h1.3c0.1-0.1,0.1-0.1,0.2-0.1c1.3-0.2,1.7-0.2,2.3-0.2
		s1.7,0.1,2.4,0.3h0.2h0.4c0.3,0,0.4-0.2,0.4-0.4C107.6,19.2,107.6,19.2,106.8,18.9z"/>
	<path class="st0" d="M120.7,18.4c-1.4-0.7-2.9-0.7-4.3-0.7H116h-0.3h-0.3H115c-2.4,0-2.4-0.6-2.4-0.8c0-0.3,0.3-0.7,0.6-0.7h0.2
		h0.4h0.3h0.4c2.1,0,3.8-0.7,4.7-1.4c1.2-1,1.8-2.1,1.8-3.7c0-0.8-0.2-1.4-0.6-2.1c1.1-0.1,1.7-0.2,1.7-0.3h0.1
		c0.1-0.1,0.1-0.1,0.1-0.2V8.4V8.1V7.8V7.7c0-0.1,0-0.1-0.1-0.1h-0.1c-0.9,0.3-1.7,0.3-1.9,0.3h-0.3c-0.1,0-0.6,0-0.9-0.2l-0.3-0.1
		c-1.9-0.7-2.8-0.8-4-0.8c-2.1,0-4.2,0.7-5.1,1.4c-1.1,0.9-1.8,2.2-1.8,3.4c0,1.3,0.7,2.6,2.3,3.4l0.4,0.2c0.4,0.3,0.4,0.4,0.4,0.4
		c0,0.2,0,0.3-0.1,0.4h-0.1c0,0-0.2,0.2-1.8,0.8l-0.2,0.1c-0.6,0.1-0.6,0.3-0.6,0.7v0.3l0.1,0.1c0.1,0.1,0.4,0.3,0.6,0.4
		c0.2,0.2,0.6,0.3,0.8,0.7l0.3,0.3c0.2,0.3,0.3,0.6,0.3,0.6c0,0.3-0.1,0.4-0.3,0.7l-0.2,0.1c-0.2,0.1-0.4,0.2-0.7,0.4
		c-0.3,0-0.7,0.2-0.9,0.4c-0.7,0.4-0.8,1-0.8,1.4c0,1.3,1.1,3.4,6.2,3.4c2.8,0,5.2-0.8,6.5-1.7c1.9-1.1,2.4-2.3,2.4-3.6
		C122.7,20.2,122,19.1,120.7,18.4z M114.5,7.4c1.1,0,2.2,0.4,2.2,4.3c0,1.9-0.2,2.8-0.6,3c-0.2,0.3-0.9,0.7-1.4,0.7
		c-1.1,0-2.5-1-2.5-4.1C112.2,8,113.4,7.4,114.5,7.4z M114.8,25.7c-3,0-4.2-1.7-4.2-3.1c0-0.4,0-0.8,0.1-1l0.2-0.1
		c0-0.3,0.4-0.6,0.8-0.6c0.1,0,0.2,0,0.3,0.1l0.2,0.1c1.1,0.3,1.7,0.4,2.6,0.4c0.6,0,1,0,1.5-0.1h0.6h0.1h0.4c1,0,1.5,0.6,1.5,1.4
		C119.2,24.1,118,25.7,114.8,25.7z"/>
	<path class="st0" d="M140.3,19.1l-0.2-0.1h-0.3c-0.3-0.1-0.6-0.2-0.8-0.3c-0.3-0.2-0.6-0.6-0.6-1.3l-0.1-6.8c0-2.8-1.5-4.3-4.3-4.3
		c-1.7,0-2.8,0.3-4.3,1.4l-0.3,0.2l-0.2,0.1c-0.2,0-0.3,0-0.3-0.3V6.4c0-0.3-0.2-0.4-0.4-0.4c0,0-0.1,0-0.2,0.1l-0.1,0.1
		c-1.4,1.2-1.9,1.4-2.6,1.8c-0.4,0.2-1,0.4-1.4,0.6l-0.2,0.1c-0.7,0.1-0.7,0.2-0.7,0.3c0,0.2,0.1,0.4,0.7,0.6h0.2
		c0.7,0,0.9,0.3,0.9,1.3v6.7c0,0.6-0.2,1.1-1.2,1.3h-0.2c-0.6,0.1-0.7,0.4-0.7,0.6c0,0.1,0.2,0.4,0.8,0.4h0.2h1.3
		c0.3-0.1,0.7-0.1,1.1-0.1h0.4c1,0,2.5,0.1,3.6,0.1l0.1,0.1h0.2c0.2,0,0.4-0.2,0.4-0.4c0-0.2-0.1-0.3-0.4-0.4l-0.2-0.1
		c-0.7-0.2-1.2-0.3-1.2-1.4L129,11v-0.1c0-2.3,1.9-3.2,2.9-3.2c1.3,0,2.3,0.9,2.3,2.8l0.1,6.8c0,1.1-0.2,1.4-1.2,1.7h-0.2
		c-0.4,0.1-0.6,0.3-0.6,0.6c0,0.2,0.2,0.4,0.6,0.4L133,20c0.1,0,0.2-0.1,0.3-0.1c0.4,0,0.8,0,1.1-0.1h1.8h2.1c0.2,0,0.3,0,0.6,0.1
		c0.3,0,0.7,0.1,1,0.1h0.2c0.6,0,0.7-0.2,0.7-0.6C140.8,19.3,140.6,19.2,140.3,19.1z"/>
	<path class="st0" d="M54.3,19.1l-0.2-0.1c-0.3-0.1-1.5-0.3-1.5-2V9.5c0-2.4-2.5-3.3-4.4-3.3c-1.1,0-2.2,0.3-4.1,1.4L44,7.7
		c-0.2,0.1-0.4,0.1-0.6,0.1c-0.1,0-0.2,0-0.2-0.1h-0.1c0,0-0.1,0-0.1-0.1c-0.1,0-0.6-0.4-1.1-0.8c-0.7-0.4-1.5-0.7-2.5-0.7
		c-1,0-1.9,0.1-4,1.3l-0.2,0.1h-0.3c-0.2,0-0.3,0-0.3-0.4v-1c0-0.6-0.1-0.6-0.3-0.6h-0.2l-0.2,0.2c-0.9,1-1.8,2-4.3,2.9h-0.2
		C28.7,8.8,28.7,9,28.7,9c0,0.1,0,0.2,0.2,0.3l0.1,0.1c0.2,0.1,0.3,0.1,0.4,0.1c0.2,0,0.4,0,0.6,0.2c0.3,0.2,0.6,0.4,0.6,1v6.5v0.2
		c0,0.7-0.3,1.1-1.2,1.3l-0.2,0.1c-0.6,0.1-0.6,0.3-0.6,0.4c0,0.2,0.1,0.6,0.4,0.6h0.4h0.1h0.1h1c0.2-0.1,0.6-0.1,0.8-0.1
		c0.4-0.1,1-0.1,1.5-0.1c0.8,0,1.5,0.1,2.2,0.2h0.3c0.2,0,0.6,0.1,0.6,0.1c0.3,0,0.6-0.2,0.6-0.4c0-0.2-0.2-0.4-0.3-0.6L36,18.9
		v-0.1c-0.4-0.1-1.2-0.3-1.2-1.3v-0.3l-0.2-6.3v-0.3c0-1.9,1.1-2.9,2.6-2.9c1.2,0,2.5,1,2.5,3.2v6.2c0,1.1-0.4,1.5-1.3,1.8h-0.2
		c-0.6,0.2-0.7,0.3-0.7,0.6c0,0.2,0.3,0.6,0.9,0.6h0.3c0.4,0,1,0,1.3-0.1c0.6,0,1-0.1,1.4-0.1h1c0.8,0,1.3,0,2.1,0.1l0.2,0.1h0.2
		c0.4,0,0.7-0.3,0.7-0.6c0-0.1-0.1-0.3-0.3-0.4l-0.2-0.1c-1.2-0.3-1.4-0.6-1.4-1.4v-6.8c0-2.1,1-2.9,2.2-2.9c1.7,0,2.6,1,2.6,3.1
		l0.1,6.4c0,1-0.4,1.5-1.2,1.7h-0.1c-0.6,0.2-0.7,0.3-0.7,0.6c0,0.2,0.1,0.6,0.6,0.6h0.3h0.1h0.2h1.2c0.4-0.1,0.9-0.1,1.3-0.1
		c0.8,0,1.4,0.1,2.2,0.1c0.3,0.1,0.6,0.1,0.9,0.1l0.3,0.1h0.2c0.4,0,0.6-0.2,0.6-0.6C54.7,19.4,54.5,19.2,54.3,19.1z"/>
	<path class="st0" d="M75.8,11c-0.1,0-0.2-0.1-0.3-0.2l-0.7-0.1c0,0-0.2-0.1-0.3-0.1c-0.7-0.2-1.5-0.4-1.9-0.9
		c-0.3-0.3-0.4-0.7-0.4-1c0-0.9,0.8-1.8,2.3-1.8c1.4,0,2.3,0.9,3.1,2l0.1,0.3c0.3,0.4,0.4,0.4,0.7,0.4c0.4,0,0.4-0.3,0.4-1.1V8.4
		V7.8c0-0.6,0-0.6-0.2-0.7V7c-0.3-0.1-1.5-0.9-3.7-0.9c-4.3,0-6.1,2.4-6.1,4.2c0,1.3,0.8,2.9,3.6,4.1l0.6,0.2
		c0.3,0.1,0.7,0.2,0.9,0.3c0.4,0.1,0.8,0.2,1.2,0.4c1.2,0.4,1.5,1.1,1.5,1.8c0,1.1-1,2.2-2.8,2.2c-1.1,0-2-0.3-2.4-0.7
		c-0.7-0.4-0.9-1-1.2-1.5c-0.1-0.3-0.2-0.6-0.4-0.9L69.5,16c-0.1-0.2-0.2-0.2-0.3-0.2c-0.1,0-0.1,0-0.3,0.1c0,0.1-0.2,0.9-0.2,1.5
		c0,0.2-0.1,0.3-0.1,0.6v0.4c0,0.1,0.1,0.3,0.2,0.4l0.1,0.2c0.4,0.4,2,1.2,4.2,1.2c3.4,0,6.5-1.9,6.5-5c0-1.1-0.3-2-1-2.8
		C77.7,11.7,76.6,11.2,75.8,11z"/>
	<path class="st0" d="M29.3,18.2c0-0.3-0.2-0.3-0.3-0.3c-0.3,0-0.4,0-0.7,0.1c-0.2,0.1-0.4,0.2-0.7,0.2c-0.4,0-1-0.4-1-1.2v-0.1
		l0.2-7.5c0-1.4-1.2-3-4.5-3c-4.6,0-7.5,2.4-7.5,4c0,0.6,0.3,0.9,1,0.9c0.8,0,2.1-0.6,3.1-1.9c0.2-0.2,0.3-0.4,0.6-0.6
		c0,0,0-0.1,0.1-0.2c0-0.2,0.3-0.7,0.8-1c0.3-0.3,0.7-0.4,1-0.4c0.8,0,1.4,0.8,1.4,1.5v0.1l-0.1,2.6c0,1-0.3,1.4-1.3,1.9l-2.8,1
		c-3.1,1.2-3.7,2.6-3.7,4c0,1.4,0.8,2.2,2.5,2.2c0.6,0,1.4-0.2,2.1-0.6l2.4-1.3c0.3-0.2,0.4-0.2,0.6-0.2c0.2,0,0.4,0.1,0.6,0.1v0.1
		c0,0,0.1,0.1,0.2,0.4c0.6,0.7,1.3,1.1,2.1,1.1C26.9,20.2,29.3,18.9,29.3,18.2z M23,15.5c0,1.7-1.3,2.8-2.4,2.8
		c-0.9,0-1.5-0.8-1.5-1.7c0-1.7,2.5-3,3.5-3c0.3,0,0.4,0.2,0.4,0.4V15.5z"/>
	<path class="st0" d="M14.6,1.5h-0.3h-0.1c-0.2,0-0.6,0.1-0.8,0.1c-0.2,0-0.4,0.1-0.6,0.1C11,1.8,10.5,1.8,9.7,1.8H7.4
		C7.1,1.7,6.5,1.7,6.1,1.7H5.7c-0.7,0-0.9,0.2-0.9,0.4c0,0.2,0.1,0.4,0.8,0.6h0.2c1.8,0.3,2.1,0.7,2.1,2l-0.1,15V20v0.7
		c0,3.9-1.2,4.9-1.7,5l-0.1,0.2H5.6c-0.2,0-0.4-0.1-0.7-0.3H4.9c-0.1-0.2-0.2-0.3-0.3-0.6v-0.3C3.7,23.3,3.1,23,2.2,23
		C0.8,23,0,24,0,25c0,1.3,1.1,2.8,3.1,2.8c1.2,0,2.1-0.3,3.6-1c2.2-1.2,3.9-2.9,4.7-4.5c0.9-1.5,1.3-2.8,1.4-5.5V4.9
		c0-0.8,0-0.9,0.1-1.1c0.1-0.4,0.2-0.7,0.7-0.9c0.1-0.1,0.2-0.1,0.3-0.2h0.2l0.2-0.1c0.2-0.2,0.4-0.4,0.4-0.6
		C14.9,1.8,14.7,1.6,14.6,1.5z"/>
	<path class="st0" d="M61.7,6.5c-1.7,0-3.2,0.4-4.4,1.3c-2.3,1.5-3.2,3.2-3.2,5.5c0,2.4,1.5,4.9,3.8,6c1.2,0.7,2.5,1,3.9,1
		c3.2,0,5.8-2.2,5.8-3c0-0.3-0.1-0.3-0.3-0.3c0,0-0.2,0-0.4,0.1c-0.1,0.2-0.3,0.2-0.4,0.3c-0.2,0.1-0.6,0.3-0.8,0.4
		c-0.8,0.4-1.5,0.6-2.1,0.6c-1.8,0-3.6-1.1-4.5-3.3c-0.2-0.8-0.3-1.7-0.3-2c0-0.7,0.1-0.9,0.2-1.1c0.2-0.3,0.6-0.4,1-0.4l7.4-0.1
		c0.4,0,0.7-0.2,0.7-0.7C67.9,9.1,66,6.5,61.7,6.5z M61.3,10.7h-1.3h-0.1c-0.6,0-0.8-0.3-0.8-0.7c0-1.2,1.7-2.6,3.2-2.6
		c1,0,1.7,0.8,1.7,1.4C63.9,9.7,63.4,10.7,61.3,10.7z"/>
</g>
</svg>
