<svg id="Layer_1" data-name="Layer 1" xmlns="http://www.w3.org/2000/svg" viewBox="0 0 98 85"><defs><style>.cls-1{fill:#283f81;}.cls-2{fill:#d0e7f8;}</style></defs><title>JS_Ico_9-2</title><path class="cls-1" d="M49,85A36.72,36.72,0,1,1,85.72,48.28,36.77,36.77,0,0,1,49,85Zm0-71.45A34.72,34.72,0,1,0,83.72,48.28,34.76,34.76,0,0,0,49,13.55Z"/><path class="cls-1" d="M38.62,65.29a1,1,0,0,1-1-1v-32a1,1,0,0,1,1.49-.87L68,47.4a1,1,0,0,1,0,1.75l-28.87,16A1,1,0,0,1,38.62,65.29Zm1-31.32V62.59L65.44,48.28Z"/><polygon class="cls-2" points="39.63 62.59 65.44 48.28 39.63 33.96 39.63 62.59"/></svg>