<svg id="Layer_1" data-name="Layer 1" xmlns="http://www.w3.org/2000/svg" viewBox="0 0 98 85"><defs><style></style></defs><title>JS_Ico_2-1</title><polygon class="cls-2" points="73.18 69.58 25.18 69.58 25.18 46.07 73.18 39.67 73.18 69.58"/><circle class="cls-2" cx="77.29" cy="20.26" r="3.4"/><circle class="cls-2" cx="68.99" cy="20.26" r="3.4"/><path class="cls-1" d="M96,83H95V33.57c0-3.89-2.49-6.77-6-7.06V13a1,1,0,0,0-1-1H32V10a1,1,0,0,0-2,0v2H28V10a1,1,0,0,0-2,0v2H24V10a1,1,0,0,0-2,0v2H20V10a1,1,0,0,0-2,0v2H16V10a1,1,0,0,0-2,0v2H10a1,1,0,0,0-1,1V26.52c-3.51.28-6,3.16-6,7.06V83H2a1,1,0,0,0,0,2h8a1,1,0,0,0,1-1V54h9V72.94H15.37a1,1,0,0,0-1,1c0,4.7,3.42,6.72,6.63,7l.45,0h52.8l.08,0H75a1,1,0,0,0,.71-.28A1,1,0,0,0,76,80V54H87V84a1,1,0,0,0,1,1h8a1,1,0,0,0,0-2ZM93,33.57V36H89V28.54C91.38,28.83,93,30.8,93,33.57Zm-84-5V36H5V33.57C5,30.8,6.62,28.83,9,28.54ZM9,83H5V38H9V83ZM76,34V33a1,1,0,0,0-1-1H21a1,1,0,0,0-1,1V43H16V28H80V43H76ZM22,44V34H74V79c-.87-.11-3.63-.81-3.63-5.05a1,1,0,0,0-1-1H22ZM16.44,74.94h52A7,7,0,0,0,70,79H21.47l-.27,0C19.87,78.86,16.94,78.19,16.44,74.94ZM76,45h5a1,1,0,0,0,1-1V27a1,1,0,0,0-1-1H15a1,1,0,0,0-1,1V44a1,1,0,0,0,1,1h5v7H11V14h3v8a1,1,0,0,0,2,0V14h2v8a1,1,0,0,0,2,0V14h2v8a1,1,0,0,0,2,0V14h2v8a1,1,0,0,0,2,0V14h2v8a1,1,0,0,0,2,0V14H87V52H76Zm13,8V38h4V83H89Z"/></svg>