<svg id="Layer_1" data-name="Layer 1" xmlns="http://www.w3.org/2000/svg" viewBox="0 0 98 85"><defs><style>.cls-1{fill:#d0e7f8;}.cls-2{fill:#283f81;}</style></defs><title>JS_Ico_3-2</title><path class="cls-2" d="M26.62,47.86a1,1,0,0,0-.1.42s0,0,0,0L24.25,59.07H18.8a1,1,0,0,0,0,2h5l-.32,1.52H18a1,1,0,0,0,0,2h5.12L22.79,66H17.36a1,1,0,0,0,0,2h5l-.09.42A5.81,5.81,0,0,0,22,70a5.74,5.74,0,0,0,1.4,3.76h-15L16.15,38.4H28.63Z"/><path class="cls-2" d="M79.66,27.29A2.63,2.63,0,0,1,77,29.92H67.14V17.4H77A2.64,2.64,0,0,1,79.66,20Z"/><path class="cls-1" d="M25.05,23.67H10.54a1,1,0,0,0,0,2H25.05a1,1,0,0,0,0-2Z"/><path class="cls-1" d="M25.05,30.18H10.54a1,1,0,0,0,0,2H25.05a1,1,0,0,0,0-2Z"/><path class="cls-1" d="M9.54,18.15a1,1,0,0,0,1,1H25.05a1,1,0,0,0,0-2H10.54A1,1,0,0,0,9.54,18.15Z"/><path class="cls-1" d="M76.3,19.36H70.42a1,1,0,0,0,0,2H76.3a1,1,0,0,0,0-2Z"/><path class="cls-1" d="M76.3,22.66H70.42a1,1,0,0,0,0,2H76.3a1,1,0,0,0,0-2Z"/><path class="cls-1" d="M76.3,26H70.42a1,1,0,0,0,0,2H76.3a1,1,0,0,0,0-2Z"/><path class="cls-1" d="M96.93,22.5h-.72a.65.65,0,0,0-1.3,0h0a.65.65,0,0,1-1.29,0h0a.65.65,0,1,0-1.3,0h0a.65.65,0,0,1-1.29,0h0a.65.65,0,0,0-1.3,0h0v0a.65.65,0,0,1-1.3,0v0h0a.65.65,0,0,0-1.3,0h-1.3v-.72h0v-.45a1,1,0,0,0-.54-.89L81.49,18.5l-.12,0A4.62,4.62,0,0,0,77,15.4H66.14a1,1,0,0,0-1,1v3H63.25V15.62a4.69,4.69,0,0,0-4.69-4.69H13.73a13.73,13.73,0,0,0,0,27.47h.37L6.19,74.56a1,1,0,0,0,.21.84,1,1,0,0,0,.79.37h7.47A8.13,8.13,0,0,0,14.9,77a8.22,8.22,0,0,0,7.91,6H45.1a1,1,0,0,0,0-2H22.81A6.21,6.21,0,0,1,17,77a6.13,6.13,0,0,1-.33-1.2H27.81a1,1,0,1,0,0-2A3.8,3.8,0,0,1,24,70a4,4,0,0,1,.17-1.13l4.15-19.6h8.76a1,1,0,0,0,.71-1.71c-2.15-2.14-.61-5.29,1.68-9.18H58.56a4.69,4.69,0,0,0,4.69-4.69V27.9h1.89v3a1,1,0,0,0,1,1H77a4.62,4.62,0,0,0,4.33-3.05l.12,0,.64-.33,3.14-1.61a1,1,0,0,0,.54-.89v-.93h0v-.43h1.3a.65.65,0,0,1,1.29,0h0a.65.65,0,0,0,1.3,0h0v0a.65.65,0,1,1,1.3,0v0h0a.65.65,0,0,0,1.3,0h0v0a.65.65,0,1,1,1.3,0v0h0a.65.65,0,1,0,1.3,0h0s0,0,0,0a.65.65,0,0,1,1.3,0s0,0,0,0h.73a1.07,1.07,0,0,0,0-2.14ZM26.62,47.86a1,1,0,0,0-.1.42s0,0,0,0L24.25,59.07H18.8a1,1,0,0,0,0,2h5l-.32,1.52H18a1,1,0,0,0,0,2h5.12L22.79,66H17.36a1,1,0,0,0,0,2h5l-.09.42A5.81,5.81,0,0,0,22,70a5.74,5.74,0,0,0,1.4,3.76h-15L16.15,38.4H28.63Zm8.61-.58H28.79l1.88-8.89h6.52C35.6,41.17,34,44.49,35.23,47.29ZM55.57,36.4H13.73a11.73,11.73,0,0,1,0-23.47H55.57Zm5.69-16V33.71a2.69,2.69,0,0,1-2.69,2.69h-1V12.93h1a2.69,2.69,0,0,1,2.69,2.69Zm3.89,5.47H63.25V21.43h1.89Zm14.52,1.39A2.63,2.63,0,0,1,77,29.92H67.14V17.4H77A2.64,2.64,0,0,1,79.66,20Zm4.15-1.91-1.68.86-.47.24V20.83l.41.21,1.74.89Z"/></svg>