<svg id="Layer_1" data-name="Layer 1" xmlns="http://www.w3.org/2000/svg" viewBox="0 0 98 85"><defs><style>.cls-1{fill:#d0e7f8;}.cls-2{fill:#283f81;}</style></defs><title>JS_Ico_4-2</title><polygon class="cls-2" points="68.1 40.7 68.1 71.33 21.58 71.33 21.58 82.14 76.42 82.14 76.42 30.4 68.1 40.7"/><polygon class="cls-2" points="41.41 51.9 45.13 50.1 42.78 47.91 41.41 51.9"/><path class="cls-1" d="M78.39,15.39a1,1,0,0,0-.26-.92L72.76,9.1,67.38,3.72a1,1,0,0,0-.88-.27l-.12,0H20.58a1,1,0,0,0-1,1V83.14a1,1,0,0,0,1,1H77.42a1,1,0,0,0,1-1V15.57A1,1,0,0,0,78.39,15.39ZM67.67,6.84,75,14.18H67.67Zm8.75,75.3H21.58V5.43h44.1v9.75a1,1,0,0,0,1,1h9.75ZM60,22.33,43,40.69l0,0a1,1,0,0,0-.16.27l0,0v0L38.76,53.48v0h0a.93.93,0,0,0,0,.12,1,1,0,0,0,0,.16.94.94,0,0,0,0,.16.91.91,0,0,0,0,.13,1,1,0,0,0,.11.26h0a1,1,0,0,0,.18.22h0a1,1,0,0,0,.21.13l.1.06a1,1,0,0,0,.76,0L52,49.37h0a1,1,0,0,0,.29-.21l0,0L69.29,30.81a3,3,0,0,0-.2-4.32l-4.85-4.36A3.05,3.05,0,0,0,60,22.33ZM41.41,51.9l1.37-4,2.36,2.19Zm5.84-2.56-3.87-3.59.85-2.61L47,45.65l2.8,2.52ZM51.59,47l-6.4-5.74,14-15.19,6.38,5.76ZM68.09,28.7a1,1,0,0,1-.27.75l-.87.95-6.38-5.76.88-1a1,1,0,0,1,1.46-.07L67.75,28A1,1,0,0,1,68.09,28.7ZM34.51,43.53V60.58H51.56V52.05a1,1,0,0,1,2,0v9.53a1,1,0,0,1-1,1H33.51a1,1,0,0,1-1-1V42.53a1,1,0,0,1,1-1h6.32a1,1,0,0,1,0,2Zm23.34,8.53V65.87a1,1,0,0,1-1,1H29.22a1,1,0,0,1-1-1V38.24a1,1,0,0,1,1-1H40a1,1,0,0,1,0,2H30.22V64.87H55.85V52.05a1,1,0,0,1,2,0Z"/></svg>