<svg id="Layer_1" data-name="Layer 1" xmlns="http://www.w3.org/2000/svg" viewBox="0 0 98 85"><defs><style>.cls-1{fill:#d0e7f8;}.cls-2{fill:#283f81;}</style></defs><title>JS_Ico_6-2</title><path class="cls-2" d="M62.34,77a1,1,0,0,1-.71-.29l-1.36-1.36L53.2,82.47a.36.36,0,0,0-.08.12.31.31,0,0,0,0,.22.33.33,0,0,0,.17.17l.11,0H89.55a.31.31,0,0,0,.31-.31V46.55a.29.29,0,0,0,0-.11.3.3,0,0,0-.17-.17h0l-.11,0-.12,0-.1.06-6.76,6.76,1.36,1.36a1,1,0,1,1-1.41,1.41L81.16,54.5,78.4,57.27l1.36,1.36A1,1,0,1,1,78.35,60L77,58.68l-2.76,2.76,1.36,1.36a1,1,0,1,1-1.41,1.41l-1.36-1.36L70,65.62,71.4,67A1,1,0,1,1,70,68.4L68.63,67,65.87,69.8l1.36,1.36a1,1,0,1,1-1.41,1.41l-1.36-1.36L61.69,74,63,75.34A1,1,0,0,1,62.34,77Zm6.56-3.84a2.31,2.31,0,0,1,.51-.75L80.3,61.57a2.31,2.31,0,0,1,3.77.75,2.37,2.37,0,0,1,.18.89V74.09a2.31,2.31,0,0,1-2.31,2.31H71a2.28,2.28,0,0,1-.9-.18A2.34,2.34,0,0,1,68.9,75,2.3,2.3,0,0,1,68.91,73.2Z"/><path class="cls-2" d="M32.79,8.91H51.1V70.63l-8.52,8.52c-.28.28-9.89,0-9.89,0Z"/><path class="cls-1" d="M75.11,54.1V6.81A2.31,2.31,0,0,0,72.79,4.5H30.68a2.31,2.31,0,0,0-2.31,2.31V81.38a2.31,2.31,0,0,0,2.31,2.31H44.11a1,1,0,0,0,.69-.28l30-28.58A1,1,0,0,0,75.11,54.1Zm-2-.43-29.39,28h-13a.31.31,0,0,1-.31-.31V6.81a.31.31,0,0,1,.31-.31H72.79a.31.31,0,0,1,.31.31Z"/><path class="cls-1" d="M91.69,45.68a2.31,2.31,0,0,0-3-1.26,2.26,2.26,0,0,0-.75.5L51.79,81.05a2.39,2.39,0,0,0-.51.76,2.31,2.31,0,0,0,1.24,3,2.27,2.27,0,0,0,.89.18H89.55a2.31,2.31,0,0,0,2.31-2.31V46.55A2.3,2.3,0,0,0,91.69,45.68Zm-1.83,37a.31.31,0,0,1-.31.31H53.41l-.11,0a.33.33,0,0,1-.17-.17.31.31,0,0,1,0-.22.36.36,0,0,1,.08-.12l7.08-7.08,1.36,1.36A1,1,0,0,0,63,75.34L61.69,74l2.76-2.76,1.36,1.36a1,1,0,0,0,1.41-1.41L65.87,69.8,68.63,67,70,68.4A1,1,0,0,0,71.4,67L70,65.62l2.76-2.76,1.36,1.36a1,1,0,0,0,1.41-1.41l-1.36-1.36L77,58.68,78.35,60a1,1,0,0,0,1.41-1.41L78.4,57.27l2.76-2.76,1.36,1.36a1,1,0,0,0,1.41-1.41l-1.36-1.36,6.76-6.76.1-.06.12,0,.11,0h0a.3.3,0,0,1,.17.17.29.29,0,0,1,0,.11Z"/><path class="cls-1" d="M82.82,61.07a2.31,2.31,0,0,0-2.52.5L69.41,72.45A2.31,2.31,0,0,0,68.9,75a2.34,2.34,0,0,0,1.24,1.24,2.28,2.28,0,0,0,.9.18H81.93a2.31,2.31,0,0,0,2.31-2.31V63.2a2.37,2.37,0,0,0-.18-.89A2.32,2.32,0,0,0,82.82,61.07Zm-.58,13a.31.31,0,0,1-.31.31H71l-.11,0a.33.33,0,0,1-.18-.18.29.29,0,0,1,0-.22.32.32,0,0,1,.07-.11L81.71,63a.34.34,0,0,1,.11-.07l.11,0,.11,0a.33.33,0,0,1,.17.16.34.34,0,0,1,0,.13Z"/><path class="cls-1" d="M22.53,4.38H8a1,1,0,0,0,0,2H22.53a1,1,0,0,0,0-2Z"/><path class="cls-1" d="M22.53,81.69H8a1,1,0,0,0,0,2H22.53a1,1,0,0,0,0-2Z"/><path class="cls-1" d="M10.38,81.51h0a1,1,0,0,0,.91-.59l3.34-7.42a1,1,0,0,0-1.82-.82l-1.31,2.91v-63l1.31,3a1,1,0,1,0,1.83-.8l-3.19-7.3a1,1,0,0,0-.4-.53l0,0a1,1,0,0,0-.19-.09,1,1,0,0,0-.25,0h-.08a1,1,0,0,0-.91.59L6.23,14.75A1,1,0,0,0,8,15.57l1.46-3.23V76L8.05,72.69a1,1,0,1,0-1.83.8l3.25,7.42A1,1,0,0,0,10.38,81.51Z"/></svg>