<svg id="Layer_1" data-name="Layer 1" xmlns="http://www.w3.org/2000/svg" viewBox="0 0 98 85"><defs><style></style></defs><title>JS_Ico_5-2</title><path class="cls-1" d="M95.31,64.9l-2.4-6.46a1,1,0,1,0-1.87.7l1.23,3.31-13.63-7V27.12a1,1,0,0,0-.07-.35l0-.09a1,1,0,0,0-.16-.24l0,0a1,1,0,0,0-.24-.18L50,11.95V4.6l2.43,3.24A1,1,0,1,0,54,6.64L49.8,1l0,0a1,1,0,0,0-.23-.2L49.42.7a.94.94,0,0,0-.84,0l-.1.07a1,1,0,0,0-.23.19l0,0L44,6.64a1,1,0,1,0,1.6,1.2L48,4.6v7.35L19.91,26.23a1,1,0,0,0-.24.18l0,0a1,1,0,0,0-.16.24l0,.09a1,1,0,0,0-.07.35V55.46l-13.63,7L7,59.13a1,1,0,1,0-1.87-.7L2.69,64.9a1,1,0,0,0,.94,1.35h.05l7.54-.39a1,1,0,0,0,.95-1.05,1,1,0,0,0-1.05-.95l-4.17.22,13.53-6.93L48.55,71.41h0a.94.94,0,0,0,.85,0h0L77.53,57.14l13.53,6.93-4.17-.22a1,1,0,1,0-.1,2l7.54.39h.05a1,1,0,0,0,.94-1.35ZM76.64,54.33,51.46,41.54,76.64,28.75ZM21.36,28.75,46.54,41.54,21.36,54.33Zm54.07-1.63L50,40V14.19ZM48,14.19V40L22.57,27.12ZM48,43V68.89L22.67,56Zm2,25.84V43L75.33,56Zm31.28-3.12.67,6.79a1,1,0,0,1-.9,1.09H81a1,1,0,0,1-1-.9l-.36-3.62C73.25,78.82,61.59,85,49,85S24.63,78.76,18.3,69l-.37,3.77a1,1,0,0,1-1,.9h-.1a1,1,0,0,1-.9-1.09l.67-6.79A1,1,0,0,1,18,65L24.75,68a1,1,0,1,1-.83,1.82l-3.79-1.73C26.13,77.21,37.12,83,49,83s22.93-5.77,28.92-14.9l-4,1.81A1,1,0,1,1,73.14,68L79.87,65a1,1,0,0,1,1.41.81Z"/><polygon class="cls-2" points="22.67 56.02 48 68.89 48 43.05 22.67 56.02"/><polygon class="cls-2" points="50 43.05 75.33 56.02 50 68.89 50 43.05"/></svg>