<svg id="Layer_1" data-name="Layer 1" xmlns="http://www.w3.org/2000/svg" viewBox="0 0 98 85"><defs><style></style></defs><title>JS_Ico_8-2</title><path class="cls-2" d="M24.53,66.56a4.61,4.61,0,1,0,4.61,4.61,4.61,4.61,0,0,0-4.61-4.61Zm0,0"/><path class="cls-1" d="M83.85,54.1H82.52l1.15-.67a6.69,6.69,0,0,0,2.45-9.13L77.35,29.12a6.69,6.69,0,0,0-9.13-2.45l-1.15.67.67-1.15a6.69,6.69,0,0,0-2.45-9.13L50.11,8.29A6.69,6.69,0,0,0,41,10.74l-.38.67a1,1,0,1,0,1.73,1l.38-.67A4.69,4.69,0,0,1,49.11,10l15.19,8.77A4.69,4.69,0,0,1,66,25.19l-2.38,4.12L49.55,37.19a2.87,2.87,0,0,0-.78-.68l-4.22-2.44a2.9,2.9,0,0,0-4,1.06,1,1,0,0,0,1.73,1,.9.9,0,0,1,1.22-.33l4.17,2.41L42.7,41a1,1,0,0,0,1,1.75L64.66,31l0,0,.15-.05,4.38-2.53a4.69,4.69,0,0,1,6.4,1.71l8.77,15.19a4.69,4.69,0,0,1-1.71,6.4l-4.2,2.42a1,1,0,0,0-.17,0H57.87a1,1,0,0,0,0-.94l-2.29-4a1,1,0,0,0-1.37-.37l-2.52,1.45a1,1,0,0,0-.37.37l-1,1.68a1,1,0,1,0,1.73,1l.83-1.45L54.33,51l1.76,3H42.73a1,1,0,0,0,0,2H78.31a1,1,0,0,0,.19,0,1,1,0,0,0,.29,0h5.06a4.69,4.69,0,0,1,4.68,4.68V78.32A4.69,4.69,0,0,1,83.85,83H42.31a.9.9,0,0,1-.89-.89,1,1,0,0,0-2,0A2.9,2.9,0,0,0,42.31,85H83.85a6.69,6.69,0,0,0,6.68-6.68V60.78A6.69,6.69,0,0,0,83.85,54.1Z"/><path class="cls-1" d="M79.27,76.63a2.9,2.9,0,0,0,2.89-2.89V65.36a2.9,2.9,0,0,0-2.89-2.89H70.9A2.9,2.9,0,0,0,68,65.36v8.37a2.9,2.9,0,0,0,2.89,2.89ZM70,73.74V65.36a.9.9,0,0,1,.89-.89h8.37a.9.9,0,0,1,.89.89v8.37a.9.9,0,0,1-.89.89H70.9A.9.9,0,0,1,70,73.74Z"/><path class="cls-1" d="M66.83,53a2.89,2.89,0,0,0,1.45-.39l7.25-4.19a2.89,2.89,0,0,0,1.06-4L72.4,37.27a2.9,2.9,0,0,0-4-1.06L61.19,40.4a2.91,2.91,0,0,0-1.35,1.76,2.87,2.87,0,0,0,.29,2.2l4.19,7.25A2.91,2.91,0,0,0,66.83,53Zm-5-10.38a.89.89,0,0,1,.42-.54l7.25-4.19a.9.9,0,0,1,1.22.33l4.19,7.25a.88.88,0,0,1,.09.68.9.9,0,0,1-.42.54l-7.25,4.18h0a.91.91,0,0,1-1.22-.33l-4.19-7.25A.88.88,0,0,1,61.78,42.67Z"/><path class="cls-1" d="M42.81,30.09l7.25,4.19a2.89,2.89,0,0,0,4-1.06L58.2,26a2.9,2.9,0,0,0-1.06-4l-7.25-4.19a2.9,2.9,0,0,0-4,1.06l-4.18,7.25a2.89,2.89,0,0,0,1.06,4Zm.67-3,4.18-7.25a.89.89,0,0,1,.54-.42.9.9,0,0,1,.23,0,.89.89,0,0,1,.45.12l7.25,4.19A.9.9,0,0,1,56.47,25l-4.19,7.25a.91.91,0,0,1-1.22.33l-7.25-4.19h0a.89.89,0,0,1-.42-.54A.88.88,0,0,1,43.48,27.14Z"/><path class="cls-1" d="M31.68,3.88H14.15a6.69,6.69,0,0,0-6.68,6.68V78.32A6.69,6.69,0,0,0,14.15,85H31.68a6.69,6.69,0,0,0,6.68-6.68V10.56A6.69,6.69,0,0,0,31.68,3.88Zm4.68,74.44A4.69,4.69,0,0,1,31.68,83H14.15a4.69,4.69,0,0,1-4.68-4.68V10.56a4.69,4.69,0,0,1,4.68-4.68H31.68a4.69,4.69,0,0,1,4.68,4.68Z"/><path class="cls-1" d="M22.91,64.76a4.79,4.79,0,1,0,4.79,4.79A4.79,4.79,0,0,0,22.91,64.76Zm0,7.58a2.79,2.79,0,1,1,2.79-2.79A2.79,2.79,0,0,1,22.91,72.34Z"/><path class="cls-2" d="M70.66,38.27a.9.9,0,0,0-1.22-.33l-7.25,4.19a.89.89,0,0,0-.42.54.88.88,0,0,0,.09.68l4.19,7.25a.91.91,0,0,0,1.22.33h0l7.25-4.18a.9.9,0,0,0,.42-.54.88.88,0,0,0-.09-.68Z"/><path class="cls-2" d="M56.14,23.75l-7.25-4.19a.89.89,0,0,0-.45-.12.9.9,0,0,0-.23,0,.89.89,0,0,0-.54.42l-4.18,7.25a.88.88,0,0,0-.09.68.89.89,0,0,0,.42.54h0l7.25,4.19a.91.91,0,0,0,1.22-.33L56.47,25a.9.9,0,0,0-.33-1.22Z"/><rect class="cls-2" x="70.01" y="64.47" width="10.16" height="10.16" rx="0.89" ry="0.89"/><path class="cls-2" d="M14.26,80.31H31.79a2.11,2.11,0,0,0,2.1-2.11V10.45a2.11,2.11,0,0,0-2.1-2.1H14.26a2.11,2.11,0,0,0-2.1,2.1V78.21A2.11,2.11,0,0,0,14.26,80.31Zm8.66-15.55a4.79,4.79,0,1,1-4.79,4.79A4.79,4.79,0,0,1,22.91,64.76Z"/><circle class="cls-2" cx="22.91" cy="69.55" r="2.79"/></svg>