<?xml version="1.0" encoding="utf-8"?>
<!-- Generator: Adobe Illustrator 19.0.0, SVG Export Plug-In . SVG Version: 6.00 Build 0)  -->
<svg version="1.1" id="Layer_1" xmlns="http://www.w3.org/2000/svg" xmlns:xlink="http://www.w3.org/1999/xlink" x="0px" y="0px"
	 viewBox="0 0 236 56.8" style="enable-background:new 0 0 236 56.8;" xml:space="preserve">
<style type="text/css">
	.st0{fill-rule:evenodd;clip-rule:evenodd;fill:#FFFFFF;}
	.st1{fill:#FFFFFF;}
</style>
<g>
	<path class="st0" d="M159.9,7.7c2.7,0,4.2-1.7,4.2-3.8c0-2.1-1.5-3.8-4.2-3.8c-2.5,0-4.2,1.9-4.2,3.8
		C155.7,5.9,157.4,7.7,159.9,7.7z"/>
	<path class="st0" d="M146.3,13.3l-2.1-0.7c-0.5-0.3-1-0.3-1.4-0.7c-1.7-0.5-2.7-1-3.6-1.9c-1-1-1.5-2.2-1.5-3.3
		c0-2.1,1.9-4.4,5.7-4.4c1.9,0,3.1,0.5,3.8,1.5v0.2c0.5,0.3,0.9,0.7,2.4,3.9l0.2,0.3c0.3,0.9,0.9,1,0.9,1c0.5,0,0.9-0.3,0.9-1.5V7.7
		l-0.2-3.8c0-1-0.3-1.5-0.7-1.9l-0.3-0.2c-0.3-0.2-2.9-1-6.3-1c-3.8,0-6.7,1-8.6,2.6c-2.7,2.4-3.6,4.4-3.6,6.8
		c0,6.5,6.7,9.1,7.9,9.6h0.3c5.1,2.1,5.5,2.6,5.8,2.9c0,0.2,0,0.2,0.2,0.2c0.9,1,1.4,2.4,1.4,3.8c0,2.7-2.6,5.5-6.3,5.5
		c-2.4,0-4.4-0.7-5.5-1.7c-0.9-0.7-1.2-1.2-1.7-2.4c-0.3-0.5-0.3-1.2-0.5-1.7c-0.2-0.3-0.3-0.7-0.3-1l-0.2-0.5c-0.2-0.9-0.7-1-1-1
		c-0.3,0-0.7,0.3-0.9,0.9c-0.2,0.3-0.2,0.9-0.2,2.9v0.2v1.9c0,1.2,0.3,1.9,1,2.2l0.3,0.2c1.4,0.7,4.8,1.7,8.2,1.7
		c10.6,0,13.2-7.2,13.2-11.3c0-1.9-0.5-3.9-1.9-5.5C150.4,15.7,149.2,14.5,146.3,13.3z"/>
	<path class="st0" d="M234.5,19.3c-1.4-1.4-2.9-2.1-4.3-2.4c-0.2,0-0.3-0.2-0.5-0.2l-0.9-0.3c-0.2,0-0.5-0.2-0.7-0.2
		c-1-0.3-2.2-0.7-2.9-1.4c-0.5-0.5-0.5-1-0.5-1.5c0-1.4,1.2-2.7,3.4-2.7s3.6,1.4,4.8,3.1l0.2,0.5c0.5,0.7,0.7,0.7,1,0.7
		c0.7,0,0.7-0.5,0.7-1.5v-0.5V12c0-0.9,0-0.9-0.3-1v-0.2c-0.3-0.2-2.2-1.4-6-1.4c-6.3,0-9.2,3.8-9.2,6.5c0,2.1,1.2,4.5,5.7,6.3
		l0.9,0.3c0.5,0.2,1,0.3,1.5,0.5c0.7,0.2,1,0.3,1.7,0.7c1.9,0.7,2.4,1.7,2.4,2.7c0,1.7-1.5,3.4-4.3,3.4c-1.7,0-3.1-0.5-3.8-1
		c-0.9-0.7-1.2-1.5-1.7-2.4c-0.3-0.5-0.5-0.9-0.9-1.4l-0.3-0.5c-0.2-0.3-0.3-0.3-0.3-0.3c-0.3,0-0.3,0-0.7,0.2
		c0,0.2-0.5,1.4-0.5,2.4v0.9v0.7c0,0.2,0.2,0.5,0.3,0.7l0.2,0.3c0.7,0.7,3.3,1.9,6.7,1.9c5.1,0,9.9-2.9,9.9-7.7
		C236,21.9,235.5,20.5,234.5,19.3z"/>
	<path class="st0" d="M165.8,29.4c-1.9-0.5-2.4-1.4-2.4-2.9V10.1c-0.2-0.5-0.3-0.7-0.5-0.7c-0.2,0-0.3,0-0.5,0.3
		c-0.3,0.2-0.5,0.3-0.9,0.5c-0.2,0.3-0.5,0.7-0.9,0.9c-0.9,0.7-1.9,1.2-5,2.4c-0.2,0.2-0.2,0.2-0.3,0.2c-0.3,0.2-0.5,0.2-0.9,0.3
		c-0.2,0.3-0.2,0.5-0.2,0.7c0,0,0,0.3,0.3,0.5c0.2,0,0.5,0,0.7,0.2c0.3,0,0.5,0,0.9,0.2c0.3,0.2,0.9,0.7,0.9,1.5v10.3
		c0,0.9-0.3,1.5-2.1,2.1c-1,0.2-1,0.3-1,0.7c0,0.3,0.3,0.9,1.5,0.9h2.1c0.2-0.2,0.2-0.2,0.3-0.2c2.1-0.3,2.6-0.3,3.6-0.3
		c1,0,2.6,0.2,3.8,0.5h0.3h0.7c0.5,0,0.7-0.3,0.7-0.7C167,29.8,167,29.8,165.8,29.4z"/>
	<path class="st0" d="M187.4,28.6c-2.2-1-4.4-1-6.7-1H180h-0.5H179h-0.5c-3.8,0-3.8-0.9-3.8-1.2c0-0.5,0.5-1,0.9-1h0.3h0.7h0.5h0.7
		c3.3,0,5.8-1,7.4-2.2c1.9-1.5,2.7-3.3,2.7-5.8c0-1.2-0.3-2.2-0.9-3.3c1.7-0.2,2.6-0.3,2.6-0.5h0.2c0.2-0.2,0.2-0.2,0.2-0.3V13v-0.3
		v-0.5V12c0-0.2,0-0.2-0.2-0.2h-0.2c-1.4,0.5-2.6,0.5-2.9,0.5h-0.5c-0.2,0-0.9,0-1.4-0.3l-0.5-0.2c-2.9-1-4.3-1.2-6.2-1.2
		c-3.3,0-6.5,1-7.9,2.2c-1.7,1.4-2.7,3.4-2.7,5.3c0,2.1,1,4.1,3.6,5.3l0.7,0.3c0.7,0.5,0.7,0.7,0.7,0.7c0,0.3,0,0.5-0.2,0.7h-0.2
		c0,0-0.3,0.3-2.7,1.2l-0.3,0.2c-0.9,0.2-0.9,0.5-0.9,1V28l0.2,0.2c0.2,0.2,0.7,0.5,0.9,0.7c0.3,0.3,0.9,0.5,1.2,1l0.5,0.5
		c0.3,0.5,0.5,0.9,0.5,0.9c0,0.5-0.2,0.7-0.5,1l-0.3,0.2c-0.3,0.2-0.7,0.3-1,0.7c-0.5,0-1,0.3-1.4,0.7c-1,0.7-1.2,1.5-1.2,2.2
		c0,2.1,1.7,5.3,9.6,5.3c4.3,0,8-1.2,10.1-2.6c2.9-1.7,3.8-3.6,3.8-5.7C190.5,31.3,189.5,29.6,187.4,28.6z M177.8,11.4
		c1.7,0,3.4,0.7,3.4,6.7c0,2.9-0.3,4.3-0.9,4.6c-0.3,0.5-1.4,1-2.2,1c-1.7,0-3.9-1.5-3.9-6.3C174.2,12.5,176.1,11.4,177.8,11.4z
		 M178.3,39.9c-4.6,0-6.5-2.6-6.5-4.8c0-0.7,0-1.2,0.2-1.5l0.3-0.2c0-0.5,0.7-0.9,1.2-0.9c0.2,0,0.3,0,0.5,0.2l0.3,0.2
		c1.7,0.5,2.6,0.7,4.1,0.7c0.9,0,1.5,0,2.4-0.2h0.9h0.2h0.7c1.5,0,2.4,0.9,2.4,2.2C185,37.5,183.3,39.9,178.3,39.9z"/>
	<path class="st0" d="M217.9,29.6l-0.3-0.2H217c-0.5-0.2-0.9-0.3-1.2-0.5c-0.5-0.3-0.9-0.9-0.9-2.1l-0.2-10.6c0-4.3-2.4-6.7-6.7-6.7
		c-2.6,0-4.3,0.5-6.7,2.2l-0.5,0.3l-0.3,0.2c-0.3,0-0.5,0-0.5-0.5V9.9c0-0.5-0.3-0.7-0.7-0.7c0,0-0.2,0-0.3,0.2l-0.2,0.2
		c-2.2,1.9-2.9,2.2-4.1,2.7c-0.7,0.3-1.5,0.7-2.2,0.9l-0.3,0.2c-1,0.2-1,0.3-1,0.5c0,0.3,0.2,0.7,1,0.9h0.3c1,0,1.4,0.5,1.4,2.1
		v10.4c0,0.9-0.3,1.7-1.9,2.1h-0.3c-0.9,0.2-1,0.7-1,0.9c0,0.2,0.3,0.7,1.2,0.7h0.3h2.1c0.5-0.2,1-0.2,1.7-0.2h0.7
		c1.5,0,3.9,0.2,5.7,0.2l0.2,0.2h0.3c0.3,0,0.7-0.3,0.7-0.7c0-0.3-0.2-0.5-0.7-0.7l-0.3-0.2c-1-0.3-1.9-0.5-1.9-2.2l-0.3-10.1v-0.2
		c0-3.6,2.9-5,4.4-5c2.1,0,3.6,1.4,3.6,4.3l0.2,10.6c0,1.7-0.3,2.2-1.9,2.6h-0.3c-0.7,0.2-0.9,0.5-0.9,0.9c0,0.3,0.3,0.7,0.9,0.7
		l0.3,0.2c0.2,0,0.3-0.2,0.5-0.2c0.7,0,1.2,0,1.7-0.2h2.7h3.3c0.3,0,0.5,0,0.9,0.2c0.5,0,1,0.2,1.5,0.2h0.3c0.9,0,1-0.3,1-0.9
		C218.6,29.9,218.4,29.8,217.9,29.6z"/>
	<path class="st0" d="M84.4,29.6L84,29.4c-0.5-0.2-2.4-0.5-2.4-3.1V14.7c0-3.8-3.9-5.1-6.8-5.1c-1.7,0-3.4,0.5-6.3,2.2L68.3,12
		c-0.3,0.2-0.7,0.2-0.9,0.2c-0.2,0-0.3,0-0.3-0.2h-0.2c0,0-0.2,0-0.2-0.2c-0.2,0-0.9-0.7-1.7-1.2c-1-0.7-2.4-1-3.9-1
		c-1.5,0-2.9,0.2-6.2,2.1l-0.3,0.2h-0.5c-0.3,0-0.5,0-0.5-0.7V9.6c0-0.9-0.2-0.9-0.5-0.9h-0.3l-0.3,0.3c-1.4,1.5-2.7,3.1-6.7,4.5
		h-0.3c-0.7,0.2-0.7,0.5-0.7,0.5c0,0.2,0,0.3,0.3,0.5l0.2,0.2c0.3,0.2,0.5,0.2,0.7,0.2c0.3,0,0.7,0,0.9,0.3c0.5,0.3,0.9,0.7,0.9,1.5
		v10.1v0.3c0,1-0.5,1.7-1.9,2.1l-0.3,0.2c-0.9,0.2-0.9,0.5-0.9,0.7c0,0.3,0.2,0.9,0.7,0.9h0.7H46h0.2h1.5c0.3-0.2,0.9-0.2,1.2-0.2
		c0.7-0.2,1.5-0.2,2.4-0.2c1.2,0,2.4,0.2,3.4,0.3h0.5c0.3,0,0.9,0.2,0.9,0.2c0.5,0,0.9-0.3,0.9-0.7c0-0.3-0.3-0.7-0.5-0.9l-0.5-0.2
		v-0.2c-0.7-0.2-1.9-0.5-1.9-2.1v-0.5l-0.3-9.8v-0.5c0-2.9,1.7-4.5,4.1-4.5c1.9,0,3.9,1.5,3.9,5v9.6c0,1.7-0.7,2.4-2.1,2.7h-0.3
		c-0.9,0.3-1,0.5-1,0.9c0,0.3,0.5,0.9,1.4,0.9h0.5c0.7,0,1.5,0,2.1-0.2c0.9,0,1.5-0.2,2.2-0.2H66c1.2,0,2.1,0,3.3,0.2l0.3,0.2H70
		c0.7,0,1-0.5,1-0.9c0-0.2-0.2-0.5-0.5-0.7l-0.3-0.2c-1.9-0.5-2.2-0.9-2.2-2.2V16.4c0-3.3,1.5-4.5,3.4-4.5c2.6,0,4.1,1.5,4.1,4.8
		l0.2,9.9c0,1.5-0.7,2.4-1.9,2.6h-0.2c-0.9,0.3-1,0.5-1,0.9c0,0.3,0.2,0.9,0.9,0.9h0.5h0.2h0.3h1.9c0.7-0.2,1.4-0.2,2.1-0.2
		c1.2,0,2.2,0.2,3.4,0.2c0.5,0.2,0.9,0.2,1.4,0.2l0.5,0.2H84c0.7,0,0.9-0.3,0.9-0.9C84.9,30.1,84.7,29.8,84.4,29.6z"/>
	<path class="st0" d="M117.7,17.1c-0.2,0-0.3-0.2-0.5-0.3l-1-0.2c0,0-0.3-0.2-0.5-0.2c-1-0.3-2.4-0.7-2.9-1.4
		c-0.5-0.5-0.7-1-0.7-1.5c0-1.4,1.2-2.7,3.6-2.7c2.2,0,3.6,1.4,4.8,3.1l0.2,0.5c0.5,0.7,0.7,0.7,1,0.7c0.7,0,0.7-0.5,0.7-1.7V13
		v-0.9c0-0.9,0-0.9-0.3-1v-0.2c-0.5-0.2-2.4-1.4-5.8-1.4c-6.7,0-9.4,3.8-9.4,6.5c0,2.1,1.2,4.5,5.7,6.3l0.9,0.3
		c0.5,0.2,1,0.3,1.4,0.5c0.7,0.2,1.2,0.3,1.9,0.7c1.9,0.7,2.4,1.7,2.4,2.7c0,1.7-1.5,3.4-4.3,3.4c-1.7,0-3.1-0.5-3.8-1
		c-1-0.7-1.4-1.5-1.9-2.4c-0.2-0.5-0.3-0.9-0.7-1.4l-0.3-0.5c-0.2-0.3-0.3-0.3-0.5-0.3c-0.2,0-0.2,0-0.5,0.2c0,0.2-0.3,1.4-0.3,2.4
		c0,0.3-0.2,0.5-0.2,0.9v0.7c0,0.2,0.2,0.5,0.3,0.7l0.2,0.3c0.7,0.7,3.1,1.9,6.5,1.9c5.3,0,10.1-2.9,10.1-7.7c0-1.7-0.5-3.1-1.5-4.3
		C120.6,18.1,118.9,17.4,117.7,17.1z"/>
	<path class="st0" d="M45.5,28.2c0-0.5-0.3-0.5-0.5-0.5c-0.5,0-0.7,0-1,0.2c-0.3,0.2-0.7,0.3-1,0.3c-0.7,0-1.5-0.7-1.5-1.9v-0.2
		l0.3-11.6c0-2.2-1.9-4.6-7-4.6c-7.2,0-11.6,3.8-11.6,6.2c0,0.9,0.5,1.4,1.5,1.4c1.2,0,3.3-0.9,4.8-2.9c0.3-0.3,0.5-0.7,0.9-0.9
		c0,0,0-0.2,0.2-0.3c0-0.3,0.5-1,1.2-1.5c0.5-0.5,1-0.7,1.5-0.7c1.2,0,2.2,1.2,2.2,2.4v0.2l-0.2,4.1c0,1.5-0.5,2.2-2.1,2.9l-4.3,1.5
		c-4.8,1.9-5.8,4.1-5.8,6.2c0,2.2,1.2,3.4,3.9,3.4c0.9,0,2.2-0.3,3.3-0.9l3.8-2.1c0.5-0.3,0.7-0.3,0.9-0.3c0.3,0,0.7,0.2,0.9,0.2
		v0.2c0,0,0.2,0.2,0.3,0.7c0.9,1,2.1,1.7,3.3,1.7C41.7,31.3,45.5,29.4,45.5,28.2z M35.7,24.1c0,2.6-2.1,4.3-3.8,4.3
		c-1.4,0-2.4-1.2-2.4-2.6c0-2.6,3.9-4.6,5.5-4.6c0.5,0,0.7,0.3,0.7,0.7V24.1z"/>
	<path class="st0" d="M22.6,2.3h-0.5h-0.2c-0.3,0-0.9,0.2-1.2,0.2c-0.3,0-0.7,0.2-0.9,0.2c-2.7,0.2-3.6,0.2-4.8,0.2h-3.6
		C11,2.7,10.1,2.7,9.4,2.7H8.9c-1,0-1.4,0.3-1.4,0.7c0,0.3,0.2,0.7,1.2,0.9h0.3c2.7,0.5,3.3,1,3.3,3.1l-0.2,23.3v0.5v1
		c0,6-1.9,7.5-2.6,7.7l-0.2,0.3H8.7c-0.3,0-0.7-0.2-1-0.5H7.5c-0.2-0.3-0.3-0.5-0.5-0.9v-0.5c-1.2-2.1-2.2-2.6-3.6-2.6
		c-2.2,0-3.4,1.5-3.4,3.1c0,2.1,1.7,4.3,4.8,4.3c1.9,0,3.3-0.5,5.7-1.5c3.4-1.9,6-4.5,7.4-7c1.4-2.4,2.1-4.3,2.2-8.6V7.6
		c0-1.2,0-1.4,0.2-1.7c0.2-0.7,0.3-1,1-1.4c0.2-0.2,0.3-0.2,0.5-0.3h0.3L22.4,4c0.3-0.3,0.7-0.7,0.7-0.9C23.1,2.9,22.8,2.5,22.6,2.3
		z"/>
	<path class="st0" d="M95.8,10.1c-2.6,0-5,0.7-6.8,2.1c-3.6,2.4-5,5-5,8.6c0,3.8,2.4,7.5,5.8,9.2c1.9,1,3.9,1.5,6,1.5
		c5,0,9.1-3.4,9.1-4.6c0-0.5-0.2-0.5-0.5-0.5c0,0-0.3,0-0.7,0.2c-0.2,0.3-0.5,0.3-0.7,0.5c-0.3,0.2-0.9,0.5-1.2,0.7
		c-1.2,0.7-2.4,0.9-3.3,0.9c-2.7,0-5.7-1.7-7-5.1c-0.3-1.2-0.5-2.6-0.5-3.1c0-1,0.2-1.4,0.3-1.7c0.3-0.5,0.9-0.7,1.5-0.7l11.5-0.2
		c0.7,0,1-0.3,1-1C105.4,14.2,102.5,10.1,95.8,10.1z M95.1,16.6h-2.1h-0.2c-0.9,0-1.2-0.5-1.2-1c0-1.9,2.6-4.1,5-4.1
		c1.5,0,2.6,1.2,2.6,2.2C99.2,15,98.4,16.6,95.1,16.6z"/>
</g>
<g>
	<path class="st1" d="M31.9,43.4c-0.1-0.4-0.2-0.8-0.4-1.2c-0.2-0.3-0.4-0.6-0.7-0.8c-0.3-0.2-0.6-0.4-0.9-0.5
		c-0.3-0.1-0.7-0.2-1.1-0.2c-0.4,0-0.7,0-1.1,0.1c-0.3,0.1-0.7,0.2-0.9,0.4c-0.3,0.2-0.5,0.5-0.6,0.8c-0.2,0.3-0.2,0.7-0.2,1.1
		c0,0.4,0.1,0.7,0.3,1c0.2,0.3,0.4,0.5,0.8,0.7s0.7,0.4,1.1,0.6c0.4,0.2,0.8,0.3,1.3,0.5c0.5,0.2,1,0.4,1.5,0.6
		c0.5,0.2,0.9,0.5,1.3,0.8c0.4,0.3,0.7,0.7,0.9,1.1c0.2,0.4,0.4,1,0.4,1.6c0,0.6-0.1,1.1-0.2,1.5c-0.2,0.4-0.4,0.8-0.7,1.1
		c-0.3,0.3-0.6,0.6-1,0.8c-0.4,0.2-0.8,0.4-1.2,0.5s-0.9,0.2-1.3,0.3c-0.5,0.1-0.9,0.1-1.4,0.1c-0.5,0-1.1,0-1.6-0.1
		c-0.5-0.1-1.1-0.2-1.6-0.3c-0.1,0-0.1-0.1-0.2-0.1c0-0.1-0.1-0.1-0.1-0.2c0-0.2,0-0.4,0-0.8c0-0.3,0-0.7,0-1c0-0.3,0-0.7,0-0.9
		c0-0.3,0-0.4,0-0.5l0.6-0.1c0.1,0.5,0.2,0.9,0.4,1.3c0.2,0.4,0.5,0.7,0.8,0.9c0.3,0.2,0.7,0.4,1,0.5c0.4,0.1,0.8,0.2,1.3,0.2
		c0.4,0,0.8,0,1.2-0.1c0.4-0.1,0.7-0.2,1-0.5s0.5-0.5,0.7-0.8c0.2-0.3,0.3-0.7,0.3-1.2c0-0.4-0.1-0.7-0.3-1s-0.4-0.5-0.8-0.7
		s-0.7-0.4-1.1-0.6c-0.4-0.2-0.8-0.3-1.3-0.5c-0.5-0.2-1-0.4-1.5-0.6c-0.5-0.2-0.9-0.5-1.3-0.8s-0.7-0.7-0.9-1.2
		c-0.2-0.5-0.4-1-0.4-1.7c0-0.8,0.2-1.5,0.5-2s0.7-1,1.2-1.3c0.5-0.3,1.1-0.6,1.7-0.7c0.6-0.1,1.3-0.2,2-0.2c0.4,0,0.9,0,1.5,0.1
		c0.5,0.1,1,0.2,1.5,0.3c0.1,0,0.1,0.1,0.2,0.1c0,0.1,0.1,0.1,0.1,0.2c0,0.2,0,0.4,0,0.7c0,0.3,0,0.6,0,0.9c0,0.3,0,0.6,0,0.8
		c0,0.3,0,0.4,0,0.5L31.9,43.4z"/>
	<path class="st1" d="M36,45.8c0.4-0.1,0.8-0.2,1.2-0.3s0.7-0.2,1-0.2c0.3-0.1,0.5-0.1,0.7-0.1c0.2,0,0.3,0,0.4,0
		c0.3,0,0.4,0.1,0.4,0.4v8.4c0,0.2-0.1,0.3-0.3,0.3c-0.1,0-0.3,0-0.4,0.1c-0.2,0-0.3,0-0.5,0s-0.3,0-0.4,0c-0.1,0-0.2,0-0.3,0
		c-0.2,0-0.3-0.1-0.3-0.3v-6.7c0-0.4-0.1-0.7-0.2-0.9s-0.4-0.2-0.6-0.2c-0.1,0-0.2,0-0.3,0c-0.1,0-0.2,0-0.3,0L36,45.8z M39.7,41.3
		c0,0.4-0.1,0.8-0.3,1c-0.2,0.2-0.6,0.3-1,0.3c-0.4,0-0.6-0.1-0.8-0.3s-0.3-0.5-0.3-0.9c0-0.4,0.1-0.8,0.4-0.9
		c0.2-0.2,0.6-0.3,1-0.3c0.4,0,0.6,0.1,0.8,0.3C39.6,40.6,39.7,40.9,39.7,41.3z"/>
	<path class="st1" d="M42.3,45.8c0.4-0.1,0.8-0.2,1.2-0.3c0.4-0.1,0.7-0.2,1-0.2c0.3-0.1,0.5-0.1,0.7-0.1s0.3,0,0.4,0
		c0.2,0,0.4,0.1,0.4,0.4l0,0.5c0.4-0.1,0.8-0.3,1.1-0.4c0.4-0.1,0.7-0.2,1.1-0.3c0.3-0.1,0.7-0.2,0.9-0.2c0.3-0.1,0.5-0.1,0.7-0.1
		c0.5,0,0.9,0.1,1.2,0.2c0.3,0.1,0.6,0.4,0.8,0.6c0.2,0.3,0.4,0.6,0.5,0.9c0.1,0.4,0.1,0.8,0.1,1.2l-0.1,5.9c0,0.2-0.1,0.3-0.3,0.3
		c-0.1,0-0.3,0-0.4,0.1c-0.2,0-0.3,0-0.5,0c-0.2,0-0.3,0-0.4,0c-0.1,0-0.2,0-0.3,0c-0.2,0-0.3-0.1-0.3-0.3l0.1-4.9V49
		c0-0.4,0-0.8-0.1-1.2c-0.1-0.3-0.2-0.6-0.3-0.8c-0.2-0.2-0.4-0.4-0.6-0.5c-0.3-0.1-0.6-0.2-1-0.2c-0.1,0-0.4,0-0.8,0.1
		c-0.4,0.1-0.9,0.2-1.4,0.5v6.9c0,0.2-0.1,0.3-0.3,0.3c-0.1,0-0.3,0-0.4,0.1c-0.2,0-0.3,0-0.5,0c-0.2,0-0.3,0-0.4,0
		c-0.1,0-0.2,0-0.3,0c-0.2,0-0.3-0.1-0.3-0.3v-6.7c0-0.4-0.1-0.7-0.2-0.9s-0.4-0.2-0.7-0.2c-0.1,0-0.2,0-0.3,0c-0.1,0-0.2,0-0.3,0
		L42.3,45.8z"/>
	<path class="st1" d="M61.8,47.8c0-0.2,0-0.5,0-0.6c0-0.2-0.1-0.4-0.2-0.5c-0.1-0.1-0.2-0.3-0.4-0.3c-0.2-0.1-0.4-0.1-0.8-0.1
		c-0.5,0-0.8,0.1-1.2,0.2c-0.3,0.2-0.6,0.4-0.8,0.6c-0.2,0.3-0.3,0.6-0.4,0.9C58,48.3,58,48.6,58,49c0,0.6,0.1,1.1,0.2,1.5
		s0.4,0.9,0.7,1.3c0.3,0.4,0.7,0.6,1.1,0.8c0.5,0.2,1,0.3,1.6,0.3c0.2,0,0.3,0,0.5,0s0.4-0.1,0.6-0.1c0.2,0,0.4-0.1,0.6-0.1
		c0.2-0.1,0.4-0.1,0.6-0.2l0.3,0.7c-0.4,0.2-0.8,0.3-1.2,0.5c-0.4,0.2-0.8,0.3-1.2,0.4c-0.4,0.1-0.8,0.2-1.1,0.3s-0.6,0.1-0.8,0.1
		c-0.7,0-1.2-0.1-1.7-0.4c-0.5-0.2-0.9-0.6-1.3-1c-0.3-0.4-0.6-0.9-0.8-1.4s-0.3-1.1-0.3-1.7c0-0.8,0.1-1.4,0.4-2.1
		c0.3-0.6,0.7-1.1,1.2-1.6c0.5-0.4,1.1-0.8,1.7-1c0.7-0.2,1.4-0.4,2.1-0.4c0.3,0,0.6,0,0.9,0.1c0.3,0.1,0.6,0.2,0.8,0.3
		c0.2,0.1,0.4,0.3,0.6,0.5c0.2,0.2,0.2,0.5,0.2,0.9c0,0.4-0.1,0.7-0.4,0.9c-0.3,0.2-0.6,0.3-1.1,0.3c-0.2,0-0.4,0-0.5,0V47.8z"/>
	<path class="st1" d="M75,53.2c-0.4,0.2-0.8,0.4-1.2,0.5c-0.4,0.2-0.9,0.3-1.3,0.4c-0.4,0.1-0.8,0.2-1.1,0.3
		c-0.4,0.1-0.6,0.1-0.9,0.1c-0.7,0-1.2-0.1-1.8-0.4c-0.5-0.2-0.9-0.6-1.3-1c-0.3-0.4-0.6-0.9-0.8-1.4s-0.3-1.1-0.3-1.7
		c0-0.7,0.1-1.4,0.4-2c0.3-0.6,0.7-1.1,1.1-1.6c0.5-0.4,1-0.8,1.7-1c0.6-0.2,1.3-0.4,2-0.4c0.5,0,0.9,0.1,1.2,0.2
		c0.4,0.1,0.7,0.3,0.9,0.6c0.2,0.2,0.4,0.5,0.6,0.9c0.1,0.4,0.2,0.7,0.2,1.1c0,0.4-0.1,0.8-0.2,1.3l-5.7,0.3c0,0.5,0.1,1,0.3,1.4
		c0.2,0.4,0.4,0.8,0.7,1.1c0.3,0.3,0.7,0.5,1.1,0.7c0.5,0.2,1,0.3,1.6,0.3c0.4,0,0.8,0,1.3-0.1c0.4-0.1,0.8-0.2,1.2-0.3L75,53.2z
		 M72.3,48.5c0-0.1,0-0.2,0-0.3c0-0.1,0-0.2,0-0.3c0-0.2,0-0.4-0.1-0.6c-0.1-0.2-0.2-0.4-0.3-0.5c-0.1-0.2-0.3-0.3-0.5-0.4
		s-0.4-0.1-0.7-0.1c-0.4,0-0.7,0.1-1,0.2c-0.3,0.1-0.5,0.3-0.7,0.6c-0.2,0.2-0.3,0.5-0.4,0.8c-0.1,0.3-0.1,0.6-0.1,1L72.3,48.5z"/>
	<path class="st1" d="M84.2,42.6c1-0.2,1.7-0.3,2.3-0.3c0.6-0.1,1-0.1,1.1-0.1c0.3,0,0.4,0.1,0.4,0.4v11.3c0,0.2-0.1,0.3-0.3,0.3
		c-0.1,0-0.3,0-0.4,0.1c-0.2,0-0.3,0-0.5,0s-0.3,0-0.4,0c-0.1,0-0.2,0-0.3,0c-0.2,0-0.3-0.1-0.3-0.3v-9.6c0-0.3,0-0.5,0-0.6
		c0-0.2-0.1-0.3-0.1-0.4c-0.1-0.1-0.1-0.2-0.3-0.2s-0.2-0.1-0.4-0.1c-0.1,0-0.2,0-0.3,0c-0.1,0-0.3,0-0.4,0L84.2,42.6z"/>
	<path class="st1" d="M96.3,51.4c-0.7,0-1.3-0.1-1.8-0.3c-0.5-0.2-1-0.5-1.3-0.9c-0.4-0.4-0.6-0.8-0.8-1.3s-0.3-1.1-0.3-1.7
		c0-0.8,0.1-1.5,0.4-2.1c0.3-0.6,0.6-1.2,1.1-1.6c0.5-0.4,1-0.8,1.7-1c0.6-0.2,1.3-0.4,2.1-0.4c0.9,0,1.6,0.2,2.3,0.5
		s1.2,0.8,1.6,1.4s0.8,1.3,1,2c0.2,0.8,0.3,1.6,0.3,2.5c0,1.1-0.2,2.2-0.5,3.2c-0.3,1-0.8,1.9-1.4,2.7c-0.6,0.8-1.3,1.4-2.2,1.9
		c-0.9,0.5-1.9,0.7-3.1,0.7c-0.7,0-1.5-0.1-2.3-0.4l0.2-0.7c0.4,0.1,0.9,0.2,1.4,0.2c0.9,0,1.7-0.2,2.3-0.5c0.6-0.3,1.2-0.7,1.6-1.2
		s0.8-1.1,1-1.8s0.4-1.5,0.5-2.3c-0.9,0.4-1.7,0.7-2.3,0.9C97.2,51.3,96.7,51.4,96.3,51.4z M100.2,49c0-0.4,0-0.8-0.1-1.2
		c0-0.4-0.1-0.9-0.2-1.3c-0.1-0.4-0.2-0.9-0.4-1.3c-0.2-0.4-0.4-0.8-0.6-1.1c-0.2-0.3-0.5-0.6-0.8-0.8c-0.3-0.2-0.7-0.3-1.1-0.3
		c-0.4,0-0.8,0.1-1.2,0.3s-0.6,0.5-0.8,0.8c-0.2,0.3-0.4,0.7-0.5,1.1s-0.2,0.8-0.2,1.2c0,1,0.3,1.9,0.8,2.5c0.5,0.6,1.3,0.9,2.4,0.9
		c0.4,0,0.8,0,1.2-0.1c0.5-0.1,0.9-0.2,1.4-0.4V49z"/>
	<path class="st1" d="M106.7,49l0.2-6.6c0-0.1,0.1-0.2,0.2-0.2c0.1,0,0.2,0,0.3,0c0.5,0.1,1.1,0.2,1.7,0.3s1.2,0.1,1.8,0.1
		c0.6,0,1.2-0.1,1.7-0.2c0.6-0.1,1.1-0.4,1.6-0.7l0.3,0.3c-0.5,0.9-1.1,1.5-1.9,2c-0.8,0.5-1.8,0.7-2.8,0.7c-0.6,0-1.2-0.1-1.9-0.3
		l-0.1,3.2c0.5-0.2,0.8-0.3,1.1-0.4c0.3-0.1,0.5-0.2,0.7-0.3c0.2-0.1,0.4-0.1,0.5-0.1c0.2,0,0.3,0,0.5,0c0.8,0,1.5,0.1,2,0.4
		s1.1,0.6,1.5,1c0.4,0.4,0.7,0.9,0.9,1.5c0.2,0.6,0.3,1.1,0.3,1.7c0,0.6-0.1,1.3-0.3,1.9c-0.2,0.6-0.6,1.2-1,1.7
		c-0.5,0.5-1,0.9-1.7,1.2c-0.7,0.3-1.5,0.5-2.5,0.5c-0.5,0-1-0.1-1.6-0.2s-1-0.3-1.3-0.5c-0.4-0.2-0.7-0.5-0.9-0.8
		c-0.2-0.3-0.4-0.7-0.4-1.1c0-0.2,0-0.4,0.1-0.6c0.1-0.2,0.2-0.3,0.4-0.4c0.2-0.1,0.3-0.2,0.5-0.2c0.2-0.1,0.4-0.1,0.6-0.1
		c0.1,0,0.2,0,0.3,0s0.2,0,0.3,0c0,0.1,0,0.1,0,0.2c0,0.1,0,0.1,0,0.2c0,0.7,0.2,1.3,0.6,1.7c0.4,0.4,0.9,0.6,1.6,0.6
		c0.5,0,0.9-0.1,1.3-0.3s0.7-0.5,1-0.8s0.5-0.7,0.6-1.2c0.1-0.4,0.2-0.9,0.2-1.4c0-0.6-0.1-1-0.3-1.5s-0.4-0.8-0.7-1.1
		c-0.3-0.3-0.7-0.5-1.2-0.7c-0.4-0.2-0.9-0.2-1.5-0.2C108.7,48.5,107.8,48.7,106.7,49L106.7,49z"/>
	<path class="st1" d="M118.1,42.6c1-0.2,1.7-0.3,2.3-0.3c0.6-0.1,1-0.1,1.1-0.1c0.3,0,0.4,0.1,0.4,0.4v11.3c0,0.2-0.1,0.3-0.3,0.3
		c-0.1,0-0.3,0-0.4,0.1c-0.2,0-0.3,0-0.5,0s-0.3,0-0.4,0c-0.1,0-0.2,0-0.3,0c-0.2,0-0.3-0.1-0.3-0.3v-9.6c0-0.3,0-0.5,0-0.6
		c0-0.2-0.1-0.3-0.1-0.4c-0.1-0.1-0.1-0.2-0.3-0.2s-0.2-0.1-0.4-0.1c-0.1,0-0.2,0-0.3,0c-0.1,0-0.3,0-0.4,0L118.1,42.6z"/>
</g>
</svg>
