<?xml version="1.0" encoding="utf-8"?>
<!-- Generator: Adobe Illustrator 21.1.0, SVG Export Plug-In . SVG Version: 6.00 Build 0)  -->
<svg version="1.1" id="Layer_1" xmlns="http://www.w3.org/2000/svg" xmlns:xlink="http://www.w3.org/1999/xlink" x="0px" y="0px"
	 viewBox="0 0 97.3 70.4" style="enable-background:new 0 0 97.3 70.4;" xml:space="preserve">
<style type="text/css">
	.st0{fill:#D0E7F8;}
	.st1{fill:#283F80;}
</style>
<g>
	<path class="st0" d="M44.6,52H23.9l-5.5,15.7c-0.6,1.6-2.1,2.7-3.8,2.7H8.3c-1.1,0-1.9-1.1-1.5-2.2L29.7,6.8c0.5-1.4,2.5-1.4,3,0
		l14.7,41.4C48,50.1,46.6,52,44.6,52z"/>
</g>
<path class="st1" d="M96.9,59.6c0,0.6-0.4,1-1,1H88c-0.6,0-1-0.4-1-1s0.4-1,1-1H91v-6.8l-7.1,0h0c-0.3,0-0.6-0.2-0.8-0.4
	c-0.2-0.3-0.2-0.6-0.1-0.9l3.3-7.8c0.2-0.5,0.8-0.7,1.3-0.5c0.5,0.2,0.7,0.8,0.5,1.3l-2.7,6.4l5.6,0V43c0-0.6,0.4-1,1-1s1,0.4,1,1
	v15.6h2.9C96.4,58.6,96.9,59,96.9,59.6z M68.6,58.6h-2.9V43c0,0,0,0,0-0.1c0-0.1,0-0.1,0-0.2c0-0.1,0-0.1-0.1-0.2
	c0-0.1-0.1-0.1-0.1-0.2c0,0-0.1-0.1-0.1-0.1c0,0,0,0-0.1-0.1c0,0-0.1,0-0.1-0.1c0,0-0.1-0.1-0.1-0.1c-0.1,0-0.2,0-0.2-0.1
	c0,0-0.1,0-0.1,0c0,0,0,0,0,0c-0.1,0-0.2,0-0.3,0.1c0,0-0.1,0-0.1,0c-0.1,0-0.1,0.1-0.2,0.1c0,0-0.1,0.1-0.1,0.1c0,0,0,0-0.1,0.1
	L58,50.1c-0.3,0.4-0.2,1.1,0.2,1.4c0.2,0.1,0.4,0.2,0.6,0.2c0.3,0,0.6-0.1,0.8-0.4l4-5.3v12.6h-2.9c-0.6,0-1,0.4-1,1s0.4,1,1,1h7.9
	c0.6,0,1-0.4,1-1S69.1,58.6,68.6,58.6z M45.1,48.7c-0.1-0.4-0.5-0.7-0.9-0.7H18.9c-0.4,0-0.8,0.3-0.9,0.7l-6.2,17.7H2.4L26.5,2h11.1
	c0.6,0,1-0.4,1-1s-0.4-1-1-1H25.8c-0.4,0-0.8,0.3-0.9,0.7L0.1,67.1C-0.1,67.4,0,67.7,0.2,68c0.2,0.3,0.5,0.4,0.8,0.4h11.4
	c0.4,0,0.8-0.3,0.9-0.7l6.2-17.7h23.9l6.4,17.7c0.1,0.4,0.5,0.7,0.9,0.7c0.1,0,0.2,0,0.3-0.1c0.5-0.2,0.8-0.8,0.6-1.3L45.1,48.7z
	 M36.1,21.4l6.2,18c0.1,0.3,0.1,0.6-0.1,0.9c-0.2,0.3-0.5,0.4-0.8,0.4H22c-0.3,0-0.6-0.2-0.8-0.4s-0.2-0.6-0.1-0.9l6-17.2
	c1.6-4.4,2.7-8.4,3.5-12.1c0.1-0.5,0.5-0.8,1-0.8c0.4,0,0.9,0.3,1,0.8c0.3,1.2,0.8,3.1,1.6,5.7C35,18.3,35.6,20.2,36.1,21.4z
	 M39.9,38.7l-5.7-16.7c-0.5-1.2-1.1-3.1-1.9-5.7c-0.2-0.7-0.4-1.4-0.6-2.1C30.9,17,30,19.8,29,22.8l-5.5,15.9H39.9z M50,2h46.3
	c0.6,0,1-0.4,1-1s-0.4-1-1-1H50c-0.6,0-1,0.4-1,1S49.5,2,50,2z M96.3,11.4H54.9c-0.6,0-1,0.4-1,1s0.4,1,1,1h41.4c0.6,0,1-0.4,1-1
	S96.8,11.4,96.3,11.4z M96.3,22.7H58.5c-0.6,0-1,0.4-1,1s0.4,1,1,1h37.8c0.6,0,1-0.4,1-1S96.8,22.7,96.3,22.7z M96.3,34.1H63.1
	c-0.6,0-1,0.4-1,1s0.4,1,1,1h33.2c0.6,0,1-0.4,1-1S96.8,34.1,96.3,34.1z M82.7,38.8c-0.5-0.2-1.1,0.1-1.3,0.6l-8.2,22.2
	c-0.2,0.5,0.1,1.1,0.6,1.3c0.1,0,0.2,0.1,0.3,0.1c0.4,0,0.8-0.3,0.9-0.7l8.2-22.2C83.5,39.5,83.3,39,82.7,38.8z"/>
</svg>
