<svg id="Layer_1" data-name="Layer 1" xmlns="http://www.w3.org/2000/svg" viewBox="0 0 98 85"><defs><style></style></defs><title>JS_Ico_7-2</title><path class="cls-1" d="M86.82,25.83a1,1,0,0,0,0-2H77.14V8.49h9.68a1,1,0,0,0,0-2H77.14V1a1,1,0,0,0-2,0V6.49H22.37V1a1,1,0,0,0-2,0V6.49H11.18a1,1,0,0,0,0,2h9.19V23.83H11.18a1,1,0,1,0,0,2h9.19V75.44H11.18a1,1,0,0,0,0,2h9.19V84a1,1,0,0,0,2,0V77.44H75.14V84a1,1,0,0,0,2,0V77.44h9.68a1,1,0,0,0,0-2H77.14V25.83Zm-11.68-2H38.24L42.86,8.49H75.14ZM22.37,8.49h18.4L36.15,23.83H22.37ZM35.55,25.83,22.37,69.64V25.83ZM75.14,75.44H37.88l4.42-14.7H61.16a1,1,0,0,0,0-2H41.56a1,1,0,0,0-1,.71l-4.81,16H22.71L37.64,25.83H50.78L43.62,49.62a1,1,0,0,0,1,1.29H59.12a1,1,0,0,0,1-1.29L52.92,25.83H75.14ZM51.85,29.22l5.92,19.68H45.92Z"/><path class="cls-2" d="M47,23.83c2-6.8,3.66-12.72,4.42-15.34h.93l5.49,15.34ZM75.14,72.15,58.57,25.83H52.92l7.16,23.79a1,1,0,0,1-1,1.29H44.58a1,1,0,0,1-1-1.29l7.16-23.79H46.44c-3.82,13.25-8.32,28.79-8.65,29.64h15.7l1.25,3.27h6.42a1,1,0,0,1,0,2H55.5l5.6,14.7h14ZM57.77,48.91,51.85,29.22,45.92,48.91Z"/></svg>