<svg xmlns="http://www.w3.org/2000/svg" viewBox="0 0 77.66 60.09"><defs><style>.cls-1{fill:#d0e7f8;}.cls-2{fill:#274082;}</style></defs><title>HK Vector Icons</title><g id="Layer_1" data-name="Layer 1"><rect class="cls-1" x="3.95" y="4.48" width="68.67" height="34.56"/><path class="cls-2" d="M0,0V57.94H76.4V0ZM2,42.23H16.19v13.7H2Zm72.4,13.7H18.19V40.23H2V2H74.4Z"/><polygon class="cls-2" points="67.17 11.97 65.59 10.73 50.44 30 43.14 22.72 41.73 24.13 50.62 33 67.17 11.97"/><path class="cls-2" d="M13.88,23.09q.29-.23,1-1l0,1.49,0,1.36v8.27h3V18.93H15.39l-4.6,3.66,1.46,1.82Z"/><path class="cls-2" d="M23.89,25.4A1.73,1.73,0,0,0,25.14,25a1.62,1.62,0,0,0,.45-1.23,1.63,1.63,0,0,0-.44-1.23,1.73,1.73,0,0,0-1.26-.43,1.79,1.79,0,0,0-1.28.42,1.94,1.94,0,0,0,0,2.47A1.76,1.76,0,0,0,23.89,25.4Z"/><path class="cls-2" d="M23.89,33.48A1.7,1.7,0,0,0,25.14,33a1.9,1.9,0,0,0,0-2.45,1.74,1.74,0,0,0-1.26-.43,1.79,1.79,0,0,0-1.28.42,1.94,1.94,0,0,0,0,2.47A1.75,1.75,0,0,0,23.89,33.48Z"/><path class="cls-2" d="M31,23.09q.29-.23,1-1l0,1.49,0,1.36v8.27h3V18.93H32.52l-4.6,3.66,1.46,1.82Z"/><path class="cls-1" d="M74.4,55.94V4.48H14.48V19.65l.91-.72h2.48V33.21h-3V24.95l0-1.36,0-1.49-.45.44V40.23h3.7v15.7ZM43.14,22.72,50.44,30,65.6,10.73,67.17,12,50.62,33l-8.89-8.87ZM32.52,18.93H35V33.21H32V24.95l0-1.36,0-1.49q-.75.75-1,1l-1.64,1.32-1.46-1.82ZM22.61,22.5a1.79,1.79,0,0,1,1.28-.42,1.73,1.73,0,0,1,1.26.43,1.63,1.63,0,0,1,.44,1.23A1.62,1.62,0,0,1,25.14,25a1.73,1.73,0,0,1-1.25.44A1.76,1.76,0,0,1,22.62,25a1.94,1.94,0,0,1,0-2.47Zm0,8.07a1.79,1.79,0,0,1,1.28-.42,1.74,1.74,0,0,1,1.26.43,1.9,1.9,0,0,1,0,2.45,1.7,1.7,0,0,1-1.25.44A1.75,1.75,0,0,1,22.62,33a1.94,1.94,0,0,1,0-2.47Z"/><rect class="cls-1" x="14.48" y="42.23" width="1.7" height="13.7"/><polygon class="cls-1" points="76.4 4.48 76.4 57.94 14.48 57.94 14.48 60.1 77.66 60.1 77.66 4.48 76.4 4.48"/></g></svg>