<svg xmlns="http://www.w3.org/2000/svg" viewBox="0 0 74.16 99.29"><defs><style>.cls-1{fill:#294082;}.cls-2{fill:#d0e7f8;}</style></defs><title>HK Vector Icons</title><g id="Layer_1" data-name="Layer 1"><path class="cls-1" d="M67,13.53a1,1,0,0,0-.25-.95L54.41.29a1,1,0,0,0-.9-.26,1,1,0,0,0-.15,0H1A1,1,0,0,0,0,1V91a1,1,0,0,0,1,1H66a1,1,0,0,0,1-1V13.74A1,1,0,0,0,67,13.53ZM54.71,3.41l4.44,4.44,4.44,4.44H54.71ZM2,90V2H52.71V13.29a1,1,0,0,0,1,1H65V90Z"/><path class="cls-1" d="M23,45.56a1,1,0,1,0,0-2H15.79a1,1,0,0,0-1,1V66.35a1,1,0,0,0,1,1H37.57a1,1,0,0,0,1-1V55.46a1,1,0,0,0-2,0v9.89H16.79V45.56Z"/><path class="cls-1" d="M42.47,54.46a1,1,0,0,0-1,1V70.25H11.89V40.66H23.21a1,1,0,0,0,0-2H10.89a1,1,0,0,0-1,1V71.25a1,1,0,0,0,1,1H42.47a1,1,0,0,0,1-1V55.46A1,1,0,0,0,42.47,54.46Z"/><path class="cls-1" d="M50.82,21.35h0a3.34,3.34,0,0,0-4.67.22l-19.37,21,0,0a1,1,0,0,0-.16.27l0,0v0L21.91,57.17h0a1,1,0,0,0,0,.16.56.56,0,0,0,0,.31s0,.06,0,.1A1,1,0,0,0,22,58l0,0a1,1,0,0,0,.17.2h0a1,1,0,0,0,.2.12l.11.07a1,1,0,0,0,.76,0l13.66-6.16h0a1,1,0,0,0,.29-.21l0,0L56.6,31.07a3.33,3.33,0,0,0-.22-4.73ZM24.58,55.55l1.74-5.09,3,2.79Zm6.9-3-4.56-4.23L28,45l6.73,6Zm5-2.58-7.53-6.76L45.16,25.59l7.51,6.78ZM55.13,29.71,54,30.9l-7.51-6.78,1.1-1.19a1.33,1.33,0,0,1,1.87-.09l5.55,5a1.33,1.33,0,0,1,.09,1.89Z"/><path class="cls-1" d="M67,13.53a1,1,0,0,0-.25-.95L54.41.29a1,1,0,0,0-.9-.26,1,1,0,0,0-.15,0H1A1,1,0,0,0,0,1V91a1,1,0,0,0,1,1H66a1,1,0,0,0,1-1V13.74A1,1,0,0,0,67,13.53ZM54.71,3.41l4.44,4.44,4.44,4.44H54.71ZM2,90V2H52.71V13.29a1,1,0,0,0,1,1H65V90Z"/><path class="cls-1" d="M23,45.56a1,1,0,1,0,0-2H15.79a1,1,0,0,0-1,1V66.35a1,1,0,0,0,1,1H37.57a1,1,0,0,0,1-1V55.46a1,1,0,0,0-2,0v9.89H16.79V45.56Z"/><path class="cls-1" d="M42.47,54.46a1,1,0,0,0-1,1V70.25H11.89V40.66H23.21a1,1,0,0,0,0-2H10.89a1,1,0,0,0-1,1V71.25a1,1,0,0,0,1,1H42.47a1,1,0,0,0,1-1V55.46A1,1,0,0,0,42.47,54.46Z"/><path class="cls-1" d="M50.82,21.35h0a3.34,3.34,0,0,0-4.67.22l-19.37,21,0,0a1,1,0,0,0-.16.27l0,0v0L21.91,57.17h0a1,1,0,0,0,0,.16.56.56,0,0,0,0,.31s0,.06,0,.1A1,1,0,0,0,22,58l0,0a1,1,0,0,0,.17.2h0a1,1,0,0,0,.2.12l.11.07a1,1,0,0,0,.76,0l13.66-6.16h0a1,1,0,0,0,.29-.21l0,0L56.6,31.07a3.33,3.33,0,0,0-.22-4.73ZM24.58,55.55l1.74-5.09,3,2.79Zm6.9-3-4.56-4.23L28,45l6.73,6Zm5-2.58-7.53-6.76L45.16,25.59l7.51,6.78ZM55.13,29.71,54,30.9l-7.51-6.78,1.1-1.19a1.33,1.33,0,0,1,1.87-.09l5.55,5a1.33,1.33,0,0,1,.09,1.89Z"/><polygon class="cls-2" points="26.32 50.46 24.58 55.55 29.33 53.25 26.32 50.46"/><path class="cls-2" d="M65,16.7H53.52v7.07l2.85,2.56a3.33,3.33,0,0,1,.22,4.73L53.52,34.4V76.53h-49V90H65Z"/><path class="cls-2" d="M72.69,16.7H67V91a1,1,0,0,1-1,1H4.52v6.11A1.18,1.18,0,0,0,5.7,99.29h66a2.45,2.45,0,0,0,2.45-2.45V18.17A1.47,1.47,0,0,0,72.69,16.7Z"/></g></svg>