<svg xmlns="http://www.w3.org/2000/svg" viewBox="0 0 92.65 99.29"><defs><style>.cls-1{fill:#d0e7f8;}.cls-2{fill:#294082;}</style></defs><title>HK Vector Icons</title><g id="Layer_1" data-name="Layer 1"><path class="cls-1" d="M46.94,38.74a1.28,1.28,0,0,1-.13,1L44,44.6a1.28,1.28,0,0,1-1.74.47l-4.89-2.82a1.28,1.28,0,0,1-.47-1.74l2.82-4.89a1.28,1.28,0,0,1,1.74-.47L46.35,38A1.28,1.28,0,0,1,46.94,38.74ZM83.5,68.3H74.14A2.12,2.12,0,0,0,72,70.42v9.36a2.12,2.12,0,0,0,2.12,2.12H83.5a2.12,2.12,0,0,0,2.12-2.12V70.42A2.12,2.12,0,0,0,83.5,68.3Zm-3.77-19a2.11,2.11,0,0,0-.21-1.61l-4.68-8.11A2.12,2.12,0,0,0,72,38.79l-8.11,4.68a2.12,2.12,0,0,0-.77,2.89l4.68,8.11a2.12,2.12,0,0,0,2.89.77l8.11-4.68A2.12,2.12,0,0,0,79.74,49.28ZM59,25.81a2.12,2.12,0,0,0-.78-2.89l-8.11-4.68A2.12,2.12,0,0,0,47.2,19l-4.68,8.11A2.12,2.12,0,0,0,43.29,30l8.11,4.68a2.11,2.11,0,0,0,2.89-.78Zm-4.76,46v4h5.12V70.75H56.09ZM27,5H7.35A2.36,2.36,0,0,0,5,7.35V83.12a2.36,2.36,0,0,0,2.35,2.35H27a2.36,2.36,0,0,0,2.35-2.35V7.35A2.36,2.36,0,0,0,27,5Z"/><path class="cls-2" d="M92.65,63.51V83.12a7.36,7.36,0,0,1-7.35,7.35H38.84a3.12,3.12,0,0,1-3.12-3.12,1,1,0,0,1,2,0,1.12,1.12,0,0,0,1.12,1.12H85.3a5.36,5.36,0,0,0,5.35-5.35V63.51a5.36,5.36,0,0,0-5.35-5.35H79.64a1,1,0,0,1-.32-.05,1,1,0,0,1-.22,0H39.32a1,1,0,0,1,0-2H54.48a1,1,0,0,1-.09-.11l-2.06-3.57-1.71,1-.95,1.64a1,1,0,0,1-1.73-1L49,52.22a1,1,0,0,1,.37-.37l2.81-1.62a1,1,0,0,1,1.37.37L56.13,55A1,1,0,0,1,56,56.15H79.1a.94.94,0,0,1,.21,0L84,53.46a5.37,5.37,0,0,0,2-7.31l-9.8-17a5.37,5.37,0,0,0-7.31-2L64,30a1,1,0,0,1-.16.06l0,0L40.32,43.28a1,1,0,1,1-1-1.74l5.77-3.23a1.08,1.08,0,0,0-.1-.09l-4.72-2.73a1.12,1.12,0,0,0-1.53.41,1,1,0,1,1-1.73-1,3.12,3.12,0,0,1,4.26-1.14L46,36.48a3.1,3.1,0,0,1,.91.8L62.77,28.4l2.68-4.64a5.36,5.36,0,0,0-2-7.31l-17-9.8a5.36,5.36,0,0,0-7.31,2l-.43.74a1,1,0,1,1-1.73-1l.43-.74a7.36,7.36,0,0,1,10-2.69l17,9.8a7.37,7.37,0,0,1,2.69,10l-1,1.67,1.67-1a7.37,7.37,0,0,1,10,2.69l9.8,17a7.37,7.37,0,0,1-2.69,10l-1.67,1H85.3A7.36,7.36,0,0,1,92.65,63.51ZM70.81,81.11A3.12,3.12,0,0,1,67.7,78V68.64a3.12,3.12,0,0,1,3.12-3.12h9.36a3.12,3.12,0,0,1,3.12,3.12V78a3.12,3.12,0,0,1-3.12,3.12Zm0-2h9.36A1.12,1.12,0,0,0,81.29,78V68.64a1.12,1.12,0,0,0-1.12-1.12H70.81a1.12,1.12,0,0,0-1.12,1.12V78A1.12,1.12,0,0,0,70.81,79.11ZM63.56,53.19l-4.68-8.11A3.12,3.12,0,0,1,60,40.82l8.11-4.68a3.12,3.12,0,0,1,4.26,1.14l4.68,8.11a3.12,3.12,0,0,1-1.14,4.26l-8.1,4.68a3.12,3.12,0,0,1-4.26-1.14Zm-2.95-9.11,4.68,8.11a1.14,1.14,0,0,0,1.53.41h0l8.11-4.68a1.13,1.13,0,0,0,.52-.68,1.1,1.1,0,0,0-.11-.85l-4.68-8.11a1.12,1.12,0,0,0-1.53-.41L61,42.55a1.12,1.12,0,0,0-.41,1.53ZM38,27.2a3.09,3.09,0,0,1,.31-2.37L43,16.73a3.12,3.12,0,0,1,4.26-1.14l8.11,4.68a3.13,3.13,0,0,1,1.45,1.89,3.1,3.1,0,0,1-.31,2.36l-4.68,8.11a3.12,3.12,0,0,1-4.26,1.14l-8.11-4.68A3.14,3.14,0,0,1,38,27.2Zm1.93-.52a1.13,1.13,0,0,0,.52.68h0L48.57,32a1.15,1.15,0,0,0,1.53-.41l4.68-8.11a1.11,1.11,0,0,0,.11-.85,1.12,1.12,0,0,0-.52-.68l-8.11-4.68a1.12,1.12,0,0,0-1.53.41l-4.68,8.1A1.11,1.11,0,0,0,39.94,26.68ZM34.31,7.35V83.12A7.36,7.36,0,0,1,27,90.47H7.35A7.36,7.36,0,0,1,0,83.12V7.35A7.36,7.36,0,0,1,7.35,0H27A7.36,7.36,0,0,1,34.31,7.35Zm-2,0A5.36,5.36,0,0,0,27,2H7.35A5.36,5.36,0,0,0,2,7.35V83.12a5.36,5.36,0,0,0,5.35,5.35H27a5.36,5.36,0,0,0,5.35-5.35Zm-9.92,66a5.24,5.24,0,1,1-5.24-5.24A5.24,5.24,0,0,1,22.39,73.31Zm-2,0a3.24,3.24,0,1,0-3.24,3.24A3.24,3.24,0,0,0,20.39,73.31Z"/></g></svg>