<svg xmlns="http://www.w3.org/2000/svg" viewBox="0 0 83.22 93"><defs><style>.cls-1{fill:#283f81;}.cls-2{fill:#d0e7f8;}</style></defs><title>HK Vector Icons</title><g id="Layer_1" data-name="Layer 1"><path class="cls-1" d="M82.22,29.83a1,1,0,0,0,0-2H70.61V12.49H82.22a1,1,0,0,0,0-2H70.61V1a1,1,0,0,0-2,0v9.49H15.83V1a1,1,0,0,0-2,0v9.49H1a1,1,0,0,0,0,2H13.83V27.83H1a1,1,0,0,0,0,2H13.83V79.44H1a1,1,0,0,0,0,2H13.83V92a1,1,0,0,0,2,0V81.44H68.61V92a1,1,0,0,0,2,0V81.44H82.22a1,1,0,0,0,0-2H70.61V29.83Zm-13.61-2H31.71l4.62-15.34H68.61ZM15.83,12.49h18.4L29.62,27.83H15.83ZM29,29.83,15.83,73.65V29.83ZM68.61,79.44H31.34l4.42-14.7H54.63a1,1,0,0,0,0-2H35a1,1,0,0,0-1,.71l-4.81,16H16.18L31.11,29.83H44.25L37.09,53.62a1,1,0,0,0,1,1.29H52.58a1,1,0,0,0,1-1.29L46.38,29.83H68.61ZM45.31,33.22l5.92,19.68H39.39Z"/><path class="cls-2" d="M68.61,77.56,51.53,29.83H46.38l7.16,23.79a1,1,0,0,1-1,1.29H38a1,1,0,0,1-1-1.29l7.16-23.79H40.32C36.41,43.36,31.6,60,31.26,60.88H47l.73,1.86h6.94a1,1,0,0,1,0,2H48.48l5.79,14.7H68.61Z"/><polygon class="cls-2" points="51.24 52.91 45.31 33.22 39.39 52.91 51.24 52.91"/><path class="cls-2" d="M50.81,27.83,45.32,12.49h0c-.1.34-2,7-4.42,15.34Z"/></g></svg>