<svg id="Layer_2" class="icon-svg" data-name="Layer 2" xmlns="http://www.w3.org/2000/svg" viewBox="0 0 98 85"><defs><style></style></defs><title>JS_Ico_1-1</title><path class="cls-1" d="M64.52,48.61a1,1,0,0,0-1.89.65L74.05,82.58H64.47L60.32,70.44a7.2,7.2,0,0,0-7-4.86h-14a7.2,7.2,0,0,0-7,4.9l-4.06,12.1H17.12l6.67-19.33L37.44,57.5a1,1,0,0,0,.33.08H54.37a1,1,0,1,0,0-2H39.12l1.87-6L47,30.75a1,1,0,0,0-1.34-1.23l-.21.09h0l-11.87,5,6.17-18H51.24l.63,2.29a1,1,0,1,0,1.93-.53l-.84-3a1,1,0,0,0-1-.73H40.34l2.54-7.43A1,1,0,1,0,41,6.5l-2.86,8.37a1,1,0,0,0,0,.47l-7,20.45a1,1,0,0,0-.19.32L22.78,60l-8,23.21a1,1,0,0,0,.95,1.33H29a1,1,0,0,0,.95-.68l4.29-12.79a5.22,5.22,0,0,1,5.09-3.53h14a5.23,5.23,0,0,1,5.09,3.51L62.81,83.9a1,1,0,0,0,.95.68h11.7a1,1,0,0,0,.95-1.32ZM32.75,37.14l11.47-4.83-1.24,4L31.35,41.23Zm-2.27,6.63L42.2,38.84l-1.12,3.62-11.86,5ZM28,51l.36-1,12-5-1,3.38L27.1,53.63Zm-3.24,9.4,1.46-4.23,12.24-5.34L37,55.53,24.66,60.71Zm6.62-44.85a1,1,0,0,1,1-1h3a1,1,0,0,1,0,2h-3A1,1,0,0,1,31.37,15.58Zm-18,68a1,1,0,0,1-1,1h-5a1,1,0,0,1,0-2h5A1,1,0,0,1,13.37,83.58ZM90.07,9.52l-8.8-7.9a4.72,4.72,0,0,0-6.6.32l-21,23.54,0,0a1,1,0,0,0-.16.28l0,0h0l-2.77,8.47h0L46.11,48.44a1,1,0,0,0,1.36,1.22l13.36-6h0l8.32-3.75h0l0,0a1,1,0,0,0,.25-.19l0,0L90.38,16.2a4.69,4.69,0,0,0-.31-6.67ZM48.71,46.91l.6-1.84,2.83-8.66,6.49,6Zm11.9-5.36-7.79-7.23,2.09-6.41,6,5.39,6,5.39Zm8.05-4L55.85,26.07,72.71,7.15,85.49,18.68ZM88.9,14.85l-2.08,2.33L74,5.65l2.11-2.37a2.7,2.7,0,0,1,3.78-.18l8.8,7.9a2.69,2.69,0,0,1,.17,3.84Z"/><polygon class="cls-2" points="48.71 46.91 58.63 42.44 52.14 36.42 49.31 45.08 48.71 46.91"/><polygon class="cls-2" points="42.98 36.34 44.22 32.31 32.75 37.14 31.35 41.23 42.98 36.34"/><polygon class="cls-2" points="24.76 60.43 24.66 60.71 36.95 55.53 38.46 50.86 26.22 56.2 24.76 60.43"/><polygon class="cls-2" points="29.23 47.45 41.08 42.46 42.2 38.84 30.48 43.77 29.23 47.45"/><polygon class="cls-2" points="28 51.03 27.1 53.63 39.27 48.33 40.31 44.95 28.36 49.98 28 51.03"/></svg>