<svg xmlns="http://www.w3.org/2000/svg" viewBox="0 0 163.36 75.8"><defs><style>.cls-1{fill:#294081;}.cls-2{fill:#d0e7f8;}</style></defs><title>HK Vector Icons</title><g id="Layer_1" data-name="Layer 1"><path class="cls-1" d="M89,12.32H73.22V4.92A4.93,4.93,0,0,0,68.3,0H38.91a4.67,4.67,0,0,0-4.66,4.66v7.66H6.16A6.17,6.17,0,0,0,0,18.48V65.68a6.17,6.17,0,0,0,6.16,6.16H89a6.17,6.17,0,0,0,6.16-6.16V18.48A6.17,6.17,0,0,0,89,12.32ZM36.24,4.65A2.67,2.67,0,0,1,38.91,2H68.3a2.93,2.93,0,0,1,2.93,2.93v7.4h-35ZM89,69.84H6.16A4.16,4.16,0,0,1,2,65.68V18.48a4.16,4.16,0,0,1,4.16-4.16H89a4.16,4.16,0,0,1,4.16,4.16v24a1,1,0,0,0-.37-.07H78.08a21,21,0,0,0-42.06,0H3.74a1,1,0,0,0,0,2H36.07a21,21,0,0,0,42,0H92.77a1,1,0,0,0,.37-.07V65.68A4.16,4.16,0,0,1,89,69.84ZM76.11,43A19.06,19.06,0,1,1,57.05,23.9,19.08,19.08,0,0,1,76.11,43ZM9.37,29.38H29.61a2.52,2.52,0,0,0,2.52-2.52V21.69a2.52,2.52,0,0,0-2.52-2.52H9.37a2.52,2.52,0,0,0-2.52,2.52v5.18A2.52,2.52,0,0,0,9.37,29.38Zm-.52-7.7a.52.52,0,0,1,.52-.52H29.61a.52.52,0,0,1,.52.52v5.18a.52.52,0,0,1-.52.52H9.37a.52.52,0,0,1-.52-.52ZM28,64a1,1,0,0,1-1,1H7.85a1,1,0,1,1,0-2H27A1,1,0,0,1,28,64Zm134.66,3.52a2.94,2.94,0,0,0-.66-1L106.19,10.7a3.1,3.1,0,0,0-1-.66,3,3,0,0,0-2.32,0,3.31,3.31,0,0,0-1.75,1.63l-.07.15a2.3,2.3,0,0,0-.28,1V68.68A3.51,3.51,0,0,0,104,72h55.84a2.12,2.12,0,0,0,1-.3l.13-.07a3.22,3.22,0,0,0,1.65-1.77A3,3,0,0,0,162.68,67.52Zm-1.85,1.55h0a1.33,1.33,0,0,1-.56.69l-.3.15c-.06,0-.12.07-.08.08H104a1.53,1.53,0,0,1-1.26-1.31V12.89a1.22,1.22,0,0,1,.09-.21l.11-.23a1.34,1.34,0,0,1,.68-.56,1,1,0,0,1,.39-.08,1,1,0,0,1,.37.07,1.09,1.09,0,0,1,.35.23L116.1,23.44l-2.49,2.49A1,1,0,1,0,115,27.34l2.49-2.49,5,5-2.49,2.49a1,1,0,1,0,1.41,1.41L124,31.31l5,5-2.49,2.49a1,1,0,0,0,1.41,1.41l2.49-2.49,5,5L133,45.29a1,1,0,1,0,1.41,1.41l2.49-2.49,5,5-2.49,2.49a1,1,0,1,0,1.41,1.41l2.49-2.49,5,5-2.49,2.49a1,1,0,1,0,1.41,1.41l2.49-2.49L160.62,68a.94.94,0,0,1,.22.33A1,1,0,0,1,160.83,69.06ZM136.3,54.76,119.48,37.94a3,3,0,0,0-1-.66,3,3,0,0,0-2.33,0,3.12,3.12,0,0,0-1.69,1.62,2.94,2.94,0,0,0-.29,1.17V56.9a3.12,3.12,0,0,0,3.14,3h16.83a3.11,3.11,0,0,0,1.16-.23,3,3,0,0,0,1-4.93Zm-1.19,2.52a1,1,0,0,1-.55.55,1.1,1.1,0,0,1-.41.08H117.33a1.13,1.13,0,0,1-1.14-1V40.07a1.33,1.33,0,0,1,.13-.39,1.17,1.17,0,0,1,.62-.56,1,1,0,0,1,.77,0,1,1,0,0,1,.34.23l16.83,16.83a1,1,0,0,1,.22.34A1,1,0,0,1,135.12,57.29Z"/><path class="cls-2" d="M76.11,43A19.06,19.06,0,1,1,57.05,23.9,19.08,19.08,0,0,1,76.11,43ZM43.87,43a13.19,13.19,0,0,1,18.55-12,1,1,0,1,0,.82-1.83A15.19,15.19,0,0,0,41.87,43a1,1,0,1,0,2,0Zm28.37,0a1,1,0,0,0-2,0A13.2,13.2,0,0,1,57.05,56.14a1,1,0,0,0,0,2A15.2,15.2,0,0,0,72.23,43ZM9.37,27.38H29.61a.52.52,0,0,0,.52-.52V21.69a.52.52,0,0,0-.52-.52H9.37a.52.52,0,0,0-.52.52v5.18A.52.52,0,0,0,9.37,27.38ZM104,70h55.84s0,0,.08-.08l.13-.06L148.59,58.33l-1.29,1.29a1,1,0,0,1-1.41-1.41l1.29-1.29-5-5-1.29,1.29a1,1,0,0,1-1.41-1.41l1.29-1.29-5-5-1.29,1.29A1,1,0,0,1,133,45.29L134.26,44l-5-5-1.28,1.28a1,1,0,0,1-1.41-1.41l1.28-1.28-5-5-1.28,1.28a1,1,0,0,1-1.41-1.41l1.28-1.28-5-5L115,27.34a1,1,0,0,1-1.41-1.41l1.28-1.28L107,16.78a2.06,2.06,0,0,0-.66-.44,2,2,0,0,0-1.55,0,1.74,1.74,0,0,0-.89,1.1c-.11.25.05.51.05.78V70Zm10.14-29.92a2.94,2.94,0,0,1,.29-1.17,3.12,3.12,0,0,1,1.69-1.62,3,3,0,0,1,2.33,0,3,3,0,0,1,1,.66L136.3,54.76a3,3,0,0,1-1,4.93,3.11,3.11,0,0,1-1.16.23H117.33a3.12,3.12,0,0,1-3.14-3Zm49.12,33.18a1.86,1.86,0,0,0-.44-.63l-1.31-1.31a2.41,2.41,0,0,1-.53.31l-.13.07a2.12,2.12,0,0,1-1,.3H104v2.09c0,1.12.49,1.68,1.62,1.68h55.84c.26,0,.53.12.77,0a1.85,1.85,0,0,0,1.1-1A1.9,1.9,0,0,0,163.31,73.25Z"/></g></svg>