<svg xmlns="http://www.w3.org/2000/svg" viewBox="0 0 99.08 69.71"><defs><style>.cls-1{fill:#294081;}.cls-2{fill:#d0e7f8;}</style></defs><title>HK Vector Icons</title><g id="Layer_1" data-name="Layer 1"><path class="cls-1" d="M89.46,45.57a.63.63,0,0,0-.59-.41h-3.3a.63.63,0,0,0-.59.41L76.68,67.86a.63.63,0,0,0,.59.84H80a.63.63,0,0,0,.59-.42l2-5.68a.63.63,0,0,1,.59-.42h8.08a.63.63,0,0,1,.59.41l2,5.68a.63.63,0,0,0,.59.41h2.73a.63.63,0,0,0,.59-.84Zm.32,13.32H84.7a.63.63,0,0,1-.59-.83l1.83-5.28a36.12,36.12,0,0,0,1.27-4.31q.16.64.59,2t.67,2l1.91,5.55A.63.63,0,0,1,89.78,58.89Z"/><path class="cls-1" d="M50.94,2H98.08a1,1,0,0,0,0-2H50.94a1,1,0,0,0,0,2Z"/><path class="cls-1" d="M98.08,11.57H55.94a1,1,0,0,0,0,2H98.08a1,1,0,0,0,0-2Z"/><path class="cls-1" d="M98.08,23.14H59.6a1,1,0,0,0,0,2H98.08a1,1,0,0,0,0-2Z"/><path class="cls-1" d="M98.08,34.7H64.3a1,1,0,0,0,0,2H98.08a1,1,0,0,0,0-2Z"/><path class="cls-1" d="M39.16.65A1,1,0,0,0,38.22,0h-12a1,1,0,0,0-.94.65L.06,68.36A1,1,0,0,0,1,69.71H12.62a1,1,0,0,0,.94-.67L19.93,51H44.3L50.79,69a1,1,0,0,0,.94.66H63.45a1,1,0,0,0,.94-1.35ZM52.44,67.71l-6.5-18.06A1,1,0,0,0,45,49H19.22a1,1,0,0,0-.94.67L11.92,67.71H2.44L26.92,2h10.6L62,67.71Z"/><path class="cls-1" d="M34.82,16c-.8-2.61-1.37-4.55-1.67-5.76a1,1,0,0,0-1-.76,1,1,0,0,0-1,.79,103,103,0,0,1-3.61,12.29L21.5,40.15a1,1,0,0,0,.94,1.33H42.1A1,1,0,0,0,43,40.16L36.71,21.77C36.26,20.56,35.62,18.62,34.82,16Zm-11,23.46,5.63-16.24c1.1-3.09,2-6,2.77-8.81q.3,1,.66,2.17c.81,2.64,1.46,4.62,1.92,5.84l5.86,17Z"/><path class="cls-2" d="M26.92,2,2.44,67.71h9.48l6.36-18.06a1,1,0,0,1,.94-.67H45a1,1,0,0,1,.94.66l6.5,18.06H62L37.53,2Zm16,39.06a1,1,0,0,1-.81.42H22.45a1,1,0,0,1-.94-1.33l6.09-17.57A103,103,0,0,0,31.2,10.29a1,1,0,0,1,1-.79,1,1,0,0,1,1,.76c.3,1.21.87,3.15,1.67,5.76s1.44,4.54,1.9,5.76L43,40.16A1,1,0,0,1,42.91,41.06Z"/></g></svg>