<svg xmlns="http://www.w3.org/2000/svg" viewBox="0 0 73 89.2"><defs><style>.cls-1{fill:#d0e7f8;}.cls-2{fill:#294082;}</style></defs><title>HK Vector Icons</title><g id="Layer_1" data-name="Layer 1"><path class="cls-1" d="M61.77,63.78,52.4,54.43l-.54.1a3.34,3.34,0,0,1-2.94-.85l-12-12c3.27-.91-.62-5.38,1.75-7.74l15,15a3.23,3.23,0,0,1,.85,2.94l-.08.54,9.35,9.35a1.42,1.42,0,1,1-2,2ZM67,68.33s-6,11.53-6,14.84a6,6,0,1,0,12,0C73,79.86,67,68.33,67,68.33Z"/><path class="cls-2" d="M66.14,59.42l-8.23-8.23A6.42,6.42,0,0,0,56,46.58L36.81,27.35c4.61-5.63,3.53-6.71,3-7.25l-8.17-8.17c-.89-.89-2.3-.58-4.74,1.1L16.72,2.87A9.79,9.79,0,1,0,2.87,16.72L13,26.89c-1.67,2.45-2,3.85-1.09,4.74l8.17,8.17c.54.54,1.62,1.65,7.26-3L46.57,56a6.39,6.39,0,0,0,4.61,1.87l8.23,8.23a4.72,4.72,0,0,0,3.36,1.39h0a4.72,4.72,0,0,0,3.36-1.39h0a4.76,4.76,0,0,0,0-6.72ZM13.93,30.2a11.69,11.69,0,0,1,1.65-2.73,1.21,1.21,0,0,0-.12-1.57L4.58,15A7.37,7.37,0,1,1,15,4.58L25.9,15.47a1.21,1.21,0,0,0,1.58.12,11.6,11.6,0,0,1,2.73-1.66l7.6,7.6a17.94,17.94,0,0,1-2.93,4.35,1.14,1.14,0,0,0-.17.11l-8.61,8.61a1.19,1.19,0,0,0-.14.21,18.2,18.2,0,0,1-4.42,3ZM64.43,64.42h0a2.31,2.31,0,0,1-1.65.68h0a2.31,2.31,0,0,1-1.65-.68l-8.61-8.61a1.21,1.21,0,0,0-.86-.36h-.11a4.06,4.06,0,0,1-3.27-1.14L29.05,35.08l6-6L54.31,48.3a4.1,4.1,0,0,1,1.17,3.29,1.21,1.21,0,0,0,.35.95l8.6,8.6a2.34,2.34,0,0,1,0,3.29ZM49.85,68.33s6,11.53,6,14.84a6,6,0,1,1-12,0C43.84,79.86,49.85,68.33,49.85,68.33Z"/></g></svg>