<svg xmlns="http://www.w3.org/2000/svg" viewBox="0 0 80 75.5"><defs><style>.cls-1{fill:#d0e7f8;}.cls-2{fill:#284182;}</style></defs><title>HK Vector Icons</title><g id="Layer_1" data-name="Layer 1"><path class="cls-1" d="M40,45.68l0-23.53a2.74,2.74,0,1,0-5.47,0s0,26.72,0,27.4Z"/><path class="cls-1" d="M13.36,38.54H14.5V4h-6V35.64C8.5,37.64,11.36,38.54,13.36,38.54Z"/><path class="cls-2" d="M60.5,0H6.5a1,1,0,0,0-1,1V36.87C5.5,39.89,9,42,12.13,42H19.5v.61C19.5,44.83,22,46,24.38,46h3.71a3.4,3.4,0,0,0,2.7-1c0,5.17,0,9.42,0,10.19a1,1,0,0,0,.54.89,1,1,0,0,0,.14,0v3.14a1,1,0,0,0,.37.77l14,11.48a1,1,0,0,0,1.63-.77V45.17l2.25-1.61a1,1,0,0,0,.42-.81V42H59.1c2.4,0,2.4-1.86,2.4-3.09V1A1,1,0,0,0,60.5,0Zm-31,42.83c0,.69-.1,1.17-1.41,1.17H24.38c-1.18,0-2.88-.5-2.88-1.39V31h8Zm13,23.28-9-7.38V55.17l9-6.43Zm3,2.46-2-1.64V48l2-1.43Zm2.67-26.34L33.11,53l-.3.21c0-7.13-.08-30.19-.08-30.19a7.76,7.76,0,0,1,15.53,0ZM59.5,38.91c0,.33,0,1,0,1a1,1,0,0,1-.39,0H50.18l.07-16H55.5a1,1,0,0,0,0-2H50.21a9.76,9.76,0,0,0-19.43.06A1,1,0,0,0,30.5,22h-11a1,1,0,0,0,0,2h11a1,1,0,0,0,.23,0c0,1,0,2.85,0,5.1A1,1,0,0,0,30.5,29h-10a1,1,0,0,0-1,1V40H12.13C10,40,7.5,38.6,7.5,36.87V2h52Z"/><path class="cls-2" d="M53.75,65h-3a.5.5,0,0,0,0,1h3a.5.5,0,0,0,0-1Z"/><path class="cls-2" d="M58.5,65h-3a.5.5,0,0,0,0,1h3a.5.5,0,0,0,0-1Z"/><path class="cls-2" d="M19.5,65H15.59a4.68,4.68,0,0,0-4.09-3.11V57a.5.5,0,0,0-1,0v4.93A4.68,4.68,0,0,0,6.77,65H.5a.5.5,0,1,0,0,1h6a4.61,4.61,0,0,0-.06.55,4.69,4.69,0,0,0,4,4.63V75a.5.5,0,0,0,1,0V71.21a4.69,4.69,0,0,0,4.37-4.66,4.61,4.61,0,0,0-.06-.55H19.5a.5.5,0,0,0,0-1Zm-9,5.18a3.7,3.7,0,0,1-3-3.63A3.65,3.65,0,0,1,7.54,66h3Zm0-5.18H7.84a3.69,3.69,0,0,1,2.66-2.07Zm1-2.11a3.68,3.68,0,0,1,3,2.11h-3Zm0,7.32V66h3.32a3.58,3.58,0,0,1-3.32,4.21Z"/><path class="cls-2" d="M79.5,65H75.76a4.61,4.61,0,0,0-5.26-3.06V57a.5.5,0,0,0-1,0v5.24A4.7,4.7,0,0,0,66.94,65H60.5a.5.5,0,0,0,0,1h6.21a4.61,4.61,0,0,0-.06.55,4.7,4.7,0,0,0,2.85,4.31V75a.5.5,0,0,0,1,0V71.16A4.54,4.54,0,0,0,76,66H79.5a.5.5,0,0,0,0-1Zm-10,4.73a3.68,3.68,0,0,1-1.85-3.18,3.65,3.65,0,0,1,.06-.55H69.5Zm0-4.73H68a3.7,3.7,0,0,1,1.5-1.63Zm1-2a3.64,3.64,0,0,1,.85-.11A3.69,3.69,0,0,1,74.69,65H70.5Zm.85,7.28a3.67,3.67,0,0,1-.85-.11V66H75a3.66,3.66,0,0,1,.06.55A3.7,3.7,0,0,1,71.35,70.25Z"/><path class="cls-2" d="M61.5,38.91V1a1,1,0,0,0-1-1H6.5a1,1,0,0,0-1,1V36.87C5.5,39.89,9,42,12.13,42H19.5v.61C19.5,44.83,22,46,24.38,46h3.71a3.4,3.4,0,0,0,2.7-1c0,5.17,0,9.42,0,10.19a1,1,0,0,0,.54.89,1,1,0,0,0,.14,0v3.14a1,1,0,0,0,.37.77L38,65H24.43a.51.51,0,0,0,0,1H39.07l.11,0,6.69,5.48a1,1,0,0,0,1.63-.77V45.17l2.25-1.61a1,1,0,0,0,.42-.81V42H59.1C61.5,42,61.5,40.14,61.5,38.91Zm-32,3.92c0,.69-.1,1.17-1.41,1.17H24.38c-1.18,0-2.88-.5-2.88-1.39V31h8Zm13,23.28-9-7.38V55.17l9-6.43Zm3,2.46-2-1.64V48l2-1.43Zm2.67-26.34L33.11,53l-.3.21c0-7.13-.08-30.19-.08-30.19a7.76,7.76,0,0,1,15.53,0ZM59.5,38.91c0,.33,0,1,0,1a1,1,0,0,1-.39,0H50.18l.07-16H55.5a1,1,0,0,0,0-2H50.21a9.76,9.76,0,0,0-19.43.06A1,1,0,0,0,30.5,22h-11a1,1,0,0,0,0,2h11a1,1,0,0,0,.23,0c0,1,0,2.85,0,5.1A1,1,0,0,0,30.5,29h-10a1,1,0,0,0-1,1V40H12.13C10,40,7.5,38.6,7.5,36.87V2h52Z"/><polygon class="cls-1" points="43.5 50.77 43.5 66.93 45.5 68.57 45.5 49.5 43.5 50.77"/><polygon class="cls-1" points="42.5 66.11 42.5 51.41 34.5 56.5 34.5 59.55 42.5 66.11"/><path class="cls-1" d="M47.5,70.68a1,1,0,0,1-.18.57l2.18,1.83V47l-2,1.27Z"/><path class="cls-1" d="M14.52,65a3.68,3.68,0,0,0-2.42-2,4.9,4.9,0,0,0-.6.06V65Z"/><path class="cls-1" d="M14.87,66.55a3.66,3.66,0,0,0-.06-.55H11.5v4.21A3.69,3.69,0,0,0,14.87,66.55Z"/><path class="cls-1" d="M8.47,65h2V63.35A4.77,4.77,0,0,0,8.47,65Z"/><path class="cls-1" d="M10.5,70.18V66H7.94a4.74,4.74,0,0,0-.31,1.5A3.7,3.7,0,0,0,10.5,70.18Z"/><path class="cls-1" d="M15.82,66a4.61,4.61,0,0,1,.06.55,4.69,4.69,0,0,1-4.37,4.66v1.2A4.74,4.74,0,0,0,16.79,66Z"/><path class="cls-1" d="M16.25,65a4.78,4.78,0,0,0-1.38-1.3,4.67,4.67,0,0,1,.72,1.3Z"/><path class="cls-1" d="M10.5,71.18a4.7,4.7,0,0,1-2.16-.92,4.77,4.77,0,0,0,2.16,1.86Z"/></g></svg>