<svg xmlns="http://www.w3.org/2000/svg" viewBox="0 0 74.3 91.68"><defs><style>.cls-1{fill:#294081;}.cls-2{fill:#d0e7f8;}</style></defs><title>HK Vector Icons</title><g id="Layer_1" data-name="Layer 1"><path class="cls-1" d="M51.16,55.34V2.8c0-2.06-1-2.8-2-2.8H2.38A2.69,2.69,0,0,0,0,2.8V85.64A2.13,2.13,0,0,0,2.38,87.8H17.3a1,1,0,0,0,.69-.28L50.86,56.06A1,1,0,0,0,51.16,55.34Zm-2-.43L16.9,85.8H2.38a1.08,1.08,0,0,1-.36,0H2a.37.37,0,0,1,0-.11V2.8A1,1,0,0,1,2.38,2H49.05a2.25,2.25,0,0,1,.11.8Z"/><path class="cls-1" d="M68.73,44.69a2.45,2.45,0,0,0-1.89,0,2.4,2.4,0,0,0-.79.53L25.9,85.35a2.5,2.5,0,0,0-.54.8,2.47,2.47,0,0,0,0,1.89,2.66,2.66,0,0,0,1.32,1.4l.09,0a1.91,1.91,0,0,0,.85.23H67.78a2.79,2.79,0,0,0,2.66-2.63V47a1.93,1.93,0,0,0-.29-.93A2.62,2.62,0,0,0,68.73,44.69ZM68.44,87.1a.84.84,0,0,1-.66.63H27.72l-.07,0-.18-.08a.76.76,0,0,1-.25-.34.45.45,0,0,1,0-.33.5.5,0,0,1,.11-.16l7.94-7.94,1.59,1.59A1,1,0,0,0,38.26,79l-1.59-1.59,3.23-3.23,1.59,1.59a1,1,0,0,0,1.41-1.41l-1.59-1.59,3.23-3.23,1.59,1.59a1,1,0,0,0,1.41-1.41L46,68.13l3.23-3.23,1.59,1.59a1,1,0,0,0,1.41-1.41L50.6,63.49l3.23-3.23,1.59,1.59a1,1,0,0,0,1.41-1.41l-1.59-1.59,3.23-3.23,1.59,1.59a1,1,0,0,0,1.41-1.41l-1.59-1.59,7.59-7.59a.41.41,0,0,1,.14-.09.44.44,0,0,1,.34,0h0a.78.78,0,0,1,.35.25l.11.23,0,0Z"/><path class="cls-1" d="M60.26,63.18a2.46,2.46,0,0,0-2.68.53L45.48,75.8a2.46,2.46,0,0,0-.54,2.69,2.53,2.53,0,0,0,1.32,1.36,2.4,2.4,0,0,0,1,.23h12.1a2.53,2.53,0,0,0,2.45-2.54V65.44a2.53,2.53,0,0,0-.19-.95A2.46,2.46,0,0,0,60.26,63.18Zm-.49,14.37a.53.53,0,0,1-.45.54H47.24L47,78a.58.58,0,0,1-.26-.3.43.43,0,0,1,0-.34.46.46,0,0,1,.1-.16L59,65.12a.47.47,0,0,1,.15-.1.43.43,0,0,1,.33,0,.46.46,0,0,1,.25.24.5.5,0,0,1,0,.19Z"/><path class="cls-1" d="M73.3,0H56.91a1,1,0,0,0,0,2h6.62L59.15,8.49a1,1,0,1,0,1.66,1.12l2.82-4.17v29.3a1,1,0,0,0,2,0V4l3.77,5.57a1,1,0,1,0,1.66-1.12L66.66,2H73.3a1,1,0,0,0,0-2Z"/><path class="cls-2" d="M59.73,65.25a.5.5,0,0,1,0,.19v12.1a.53.53,0,0,1-.45.54H47.24L47,78a.58.58,0,0,1-.26-.3.43.43,0,0,1,0-.34.46.46,0,0,1,.1-.16L59,65.12a.47.47,0,0,1,.15-.1.43.43,0,0,1,.33,0A.46.46,0,0,1,59.73,65.25ZM25.1,4.86H4.86v10.6H22.73a2.37,2.37,0,0,0,2.37-2.37Zm0,68.44H6.55A1.69,1.69,0,0,0,4.86,75v5.92L4.72,83.3s10.64.31,10.95,0l9.43-9.46ZM67.78,89.72H27.64a1.63,1.63,0,0,1-.68-.16,1.54,1.54,0,0,0-.22.33,1.46,1.46,0,0,0,0,1.11,1.25,1.25,0,0,0,.79.64c.18.08.37,0,.56,0H68.24c.8,0,1.21-.36,1.21-1.16V89.07A2.62,2.62,0,0,1,67.78,89.72Zm0-2h-39l7.7-7.7.4.4A1,1,0,0,0,38.26,79l-.4-.4,3.23-3.23.4.4a1,1,0,0,0,1.41-1.41l-.4-.4,3.23-3.23.4.4a1,1,0,0,0,1.41-1.41l-.4-.4,3.23-3.23.4.4a1,1,0,0,0,1.41-1.41l-.4-.4L55,61.46l.4.4a1,1,0,0,0,1.41-1.41l-.4-.4,3.23-3.23.4.4a1,1,0,0,0,1.41-1.41l-.4-.4,6.12-6.12a1.34,1.34,0,0,1,.45-.32,1.35,1.35,0,0,1,.8-.06V87.1A.84.84,0,0,1,67.78,87.72Zm-6-22.28a2.53,2.53,0,0,0-.19-.95,2.45,2.45,0,0,0-4-.79L45.48,75.8a2.46,2.46,0,0,0-.54,2.69,2.53,2.53,0,0,0,1.32,1.36,2.4,2.4,0,0,0,1,.23h12.1a2.53,2.53,0,0,0,2.45-2.54Z"/></g></svg>